<svg
  width="128"
  height="128"
  viewBox="0 0 128 128"
  xmlns="http://www.w3.org/2000/svg"
>
  <!-- Chip body -->
  <rect
    x="32"
    y="32"
    width="64"
    height="64"
    rx="8"
    ry="8"
    fill="#1e293b"
    stroke="#0f172a"
    stroke-width="3"
  />

  <!-- Inner core -->
  <rect
    x="46"
    y="46"
    width="36"
    height="36"
    rx="4"
    ry="4"
    fill="#0f172a"
    stroke="#38bdf8"
    stroke-width="2"
  />

  <!-- Core lines -->
  <line x1="54" y1="54" x2="74" y2="54" stroke="#38bdf8" stroke-width="2" />
  <line x1="54" y1="64" x2="74" y2="64" stroke="#38bdf8" stroke-width="2" />
  <line x1="54" y1="74" x2="74" y2="74" stroke="#38bdf8" stroke-width="2" />

  <!-- Pins - top -->
  <rect x="44" y="20" width="6" height="12" fill="#94a3b8" />
  <rect x="56" y="20" width="6" height="12" fill="#94a3b8" />
  <rect x="68" y="20" width="6" height="12" fill="#94a3b8" />
  <rect x="80" y="20" width="6" height="12" fill="#94a3b8" />

  <!-- Pins - bottom -->
  <rect x="44" y="96" width="6" height="12" fill="#94a3b8" />
  <rect x="56" y="96" width="6" height="12" fill="#94a3b8" />
  <rect x="68" y="96" width="6" height="12" fill="#94a3b8" />
  <rect x="80" y="96" width="6" height="12" fill="#94a3b8" />

  <!-- Pins - left -->
  <rect x="20" y="44" width="12" height="6" fill="#94a3b8" />
  <rect x="20" y="56" width="12" height="6" fill="#94a3b8" />
  <rect x="20" y="68" width="12" height="6" fill="#94a3b8" />
  <rect x="20" y="80" width="12" height="6" fill="#94a3b8" />

  <!-- Pins - right -->
  <rect x="96" y="44" width="12" height="6" fill="#94a3b8" />
  <rect x="96" y="56" width="12" height="6" fill="#94a3b8" />
  <rect x="96" y="68" width="12" height="6" fill="#94a3b8" />
  <rect x="96" y="80" width="12" height="6" fill="#94a3b8" />
</svg>
