<?xml version="1.0" encoding="utf-8"?>
<!DOCTYPE svg PUBLIC "-//W3C//DTD SVG 1.1//EN" "http://www.w3.org/Graphics/SVG/1.1/DTD/svg11.dtd">
<svg  version="1.1" id="Layer_1" xmlns="http://www.w3.org/2000/svg" xmlns:xlink="http://www.w3.org/1999/xlink" width="450.001" height="450"
	 viewBox="0 0 450.001 450" overflow="visible" enable-background="new 0 0 450.001 450" xml:space="preserve">
<g>
	<polyline fill="none" stroke="#015353" stroke-width="3" stroke-miterlimit="10" points="189.986,429.215 189.986,429.215
		193.248,427.649 	"/>
	<polyline fill="none" stroke="#00A0C6" stroke-miterlimit="10" stroke-dasharray="3" points="363.716,306.559 363.716,306.559
		384.118,341.536 	"/>
	<polyline fill="none" stroke="#00A0C6" stroke-miterlimit="10" stroke-dasharray="3" points="363.716,306.559 363.716,306.559
		424.126,335.471 	"/>
	<polyline fill="none" stroke="#015353" stroke-width="3" stroke-miterlimit="10" points="363.716,306.559 363.716,306.559
		392.95,293.102 	"/>
	<polyline fill="none" stroke="#00A0C6" stroke-miterlimit="10" stroke-dasharray="3" points="169.49,351.196 169.49,351.196
		180.697,357.864 	"/>
	<polyline fill="none" stroke="#00A0C6" stroke-miterlimit="10" stroke-dasharray="3" points="169.49,351.196 169.49,351.196
		203.828,321.141 	"/>
	<polyline fill="none" stroke="#00A0C6" stroke-miterlimit="10" stroke-dasharray="3" points="169.49,351.196 169.49,351.196
		181.621,356.225 	"/>
	<polyline fill="none" stroke="#00A0C6" stroke-miterlimit="10" stroke-dasharray="3" points="253.505,364.792 253.505,364.792
		280.411,404.647 	"/>
	<polyline fill="none" stroke="#00A0C6" stroke-miterlimit="10" stroke-dasharray="3" points="253.505,364.792 253.505,364.792
		269.005,353.624 	"/>
	<polyline fill="none" stroke="#00A0C6" stroke-miterlimit="10" stroke-dasharray="3" points="65.679,249.456 65.679,249.456
		111.751,210.909 	"/>
	<polyline fill="none" stroke="#00A0C6" stroke-miterlimit="10" stroke-dasharray="3" points="65.679,249.456 65.679,249.456
		82.378,310.958 	"/>
	<polyline fill="none" stroke="#015353" stroke-width="3" stroke-miterlimit="10" points="65.679,249.456 65.679,249.456
		118.689,257.825 	"/>
	<polyline fill="none" stroke="#00A0C6" stroke-miterlimit="10" stroke-dasharray="3" points="65.679,249.456 65.679,249.456
		100.541,191.241 	"/>
	<polyline fill="none" stroke="#015353" stroke-width="3" stroke-miterlimit="10" points="251.837,359.411 251.837,359.411
		253.505,364.792 	"/>
	<polyline fill="none" stroke="#00A0C6" stroke-miterlimit="10" stroke-dasharray="3" points="251.837,359.411 251.837,359.411
		269.005,353.624 	"/>
	<polyline fill="none" stroke="#00A0C6" stroke-miterlimit="10" stroke-dasharray="3" points="248.067,282.637 248.067,282.637
		251.837,359.411 	"/>
	<polyline fill="none" stroke="#00A0C6" stroke-miterlimit="10" stroke-dasharray="3" points="248.067,282.637 248.067,282.637
		318.542,352.766 	"/>
	<polyline fill="none" stroke="#00A0C6" stroke-miterlimit="10" stroke-dasharray="3" points="248.067,282.637 248.067,282.637
		301.948,213.175 	"/>
	<polyline fill="none" stroke="#00A0C6" stroke-miterlimit="10" stroke-dasharray="3" points="248.067,282.637 248.067,282.637
		307.028,295.368 	"/>
	<polyline fill="none" stroke="#00A0C6" stroke-miterlimit="10" stroke-dasharray="3" points="248.067,282.637 248.067,282.637
		304.485,262.698 	"/>
	<polyline fill="none" stroke="#00A0C6" stroke-miterlimit="10" stroke-dasharray="3" points="248.067,282.637 248.067,282.637
		269.005,353.624 	"/>
	<polyline fill="none" stroke="#015353" stroke-width="3" stroke-miterlimit="10" points="420.208,394.721 420.208,394.721
		424.126,335.471 	"/>
	<polyline fill="none" stroke="#00A0C6" stroke-miterlimit="10" stroke-dasharray="3" points="428.956,258.309 428.956,258.309
		429.024,116.968 	"/>
	<polyline fill="none" stroke="#015353" stroke-width="3" stroke-miterlimit="10" points="227.113,370.547 227.113,370.547
		242.079,366.793 	"/>
	<polyline fill="none" stroke="#00A0C6" stroke-miterlimit="10" stroke-dasharray="3" points="318.542,352.766 318.542,352.766
		356.028,334.762 	"/>
	<polyline fill="none" stroke="#00A0C6" stroke-miterlimit="10" stroke-dasharray="3" points="318.542,352.766 318.542,352.766
		352.315,323.014 	"/>
	<polyline fill="none" stroke="#00A0C6" stroke-miterlimit="10" stroke-dasharray="3" points="318.542,352.766 318.542,352.766
		343.563,369.079 	"/>
	<polyline fill="none" stroke="#00A0C6" stroke-miterlimit="10" stroke-dasharray="3" points="318.542,352.766 318.542,352.766
		345.216,363.93 	"/>
	<polyline fill="none" stroke="#00A0C6" stroke-miterlimit="10" stroke-dasharray="3" points="158.072,423.538 158.072,423.538
		189.986,429.215 	"/>
	<polyline fill="none" stroke="#00A0C6" stroke-miterlimit="10" stroke-dasharray="3" points="158.072,423.538 158.072,423.538
		189.123,423.092 	"/>
	<polyline fill="none" stroke="#015353" stroke-width="3" stroke-miterlimit="10" points="157.203,22.169 157.203,22.169
		159.564,41.938 	"/>
	<polyline fill="none" stroke="#015353" stroke-width="3" stroke-miterlimit="10" points="157.203,22.169 157.203,22.169
		165.441,17.813 	"/>
	<polyline fill="none" stroke="#015353" stroke-width="3" stroke-miterlimit="10" points="429.024,116.968 429.024,116.968
		430.935,79.688 	"/>
	<polyline fill="none" stroke="#00A0C6" stroke-miterlimit="10" stroke-dasharray="3" points="14.31,33.753 14.31,33.753
		98.558,106.626 	"/>
	<polyline fill="none" stroke="#00A0C6" stroke-miterlimit="10" stroke-dasharray="3" points="14.31,33.753 14.31,33.753
		116.279,60.017 	"/>
	<polyline fill="none" stroke="#015353" stroke-width="3" stroke-miterlimit="10" points="14.31,33.753 14.31,33.753
		27.861,116.241 	"/>
	<polyline fill="none" stroke="#00A0C6" stroke-miterlimit="10" stroke-dasharray="3" points="383.089,105.784 383.089,105.784
		428.956,258.309 	"/>
	<polyline fill="none" stroke="#015353" stroke-width="3" stroke-miterlimit="10" points="383.089,105.784 383.089,105.784
		429.024,116.968 	"/>
	<polyline fill="none" stroke="#00A0C6" stroke-miterlimit="10" stroke-dasharray="3" points="383.089,105.784 383.089,105.784
		430.935,79.688 	"/>
	<polyline fill="none" stroke="#00A0C6" stroke-miterlimit="10" stroke-dasharray="3" points="383.089,105.784 383.089,105.784
		418.817,256.352 	"/>
	<polyline fill="none" stroke="#015353" stroke-width="3" stroke-miterlimit="10" points="88.898,391.231 88.898,391.231
		98.685,376.125 	"/>
	<polyline fill="none" stroke="#015353" stroke-width="3" stroke-miterlimit="10" points="88.898,391.231 88.898,391.231
		93.509,398.735 	"/>
	<polyline fill="none" stroke="#00A0C6" stroke-miterlimit="10" stroke-dasharray="3" points="189.099,57.013 189.099,57.013
		258.642,120.349 	"/>
	<polyline fill="none" stroke="#00A0C6" stroke-miterlimit="10" stroke-dasharray="3" points="189.099,57.013 189.099,57.013
		233.194,25.919 	"/>
	<polyline fill="none" stroke="#015353" stroke-width="3" stroke-miterlimit="10" points="189.099,57.013 189.099,57.013
		191.777,28.526 	"/>
	<polyline fill="none" stroke="#00A0C6" stroke-miterlimit="10" stroke-dasharray="3" points="189.099,57.013 189.099,57.013
		271.149,94.036 	"/>
	<polyline fill="none" stroke="#00A0C6" stroke-miterlimit="10" stroke-dasharray="3" points="189.099,57.013 189.099,57.013
		294.556,64.456 	"/>
	<polyline fill="none" stroke="#00A0C6" stroke-miterlimit="10" stroke-dasharray="3" points="258.642,120.349 258.642,120.349
		348.249,105.116 	"/>
	<polyline fill="none" stroke="#015353" stroke-width="3" stroke-miterlimit="10" points="258.642,120.349 258.642,120.349
		271.149,94.036 	"/>
	<polyline fill="none" stroke="#015353" stroke-width="3" stroke-miterlimit="10" points="258.642,120.349 258.642,120.349
		307.665,148.233 	"/>
	<polyline fill="none" stroke="#00A0C6" stroke-miterlimit="10" stroke-dasharray="3" points="258.642,120.349 258.642,120.349
		300.337,167.536 	"/>
	<polyline fill="none" stroke="#015353" stroke-width="3" stroke-miterlimit="10" points="111.751,210.909 111.751,210.909
		118.689,257.825 	"/>
	<polyline fill="none" stroke="#015353" stroke-width="3" stroke-miterlimit="10" points="111.751,210.909 111.751,210.909
		137.128,204.675 	"/>
	<polyline fill="none" stroke="#00A0C6" stroke-miterlimit="10" stroke-dasharray="3" points="111.751,210.909 111.751,210.909
		194.347,278.786 	"/>
	<polyline fill="none" stroke="#00A0C6" stroke-miterlimit="10" stroke-dasharray="3" points="314.47,82.823 314.47,82.823
		348.249,105.116 	"/>
	<polyline fill="none" stroke="#015353" stroke-width="3" stroke-miterlimit="10" points="314.47,82.823 314.47,82.823
		321.274,73.7 	"/>
	<polyline fill="none" stroke="#015353" stroke-width="3" stroke-miterlimit="10" points="356.028,334.762 356.028,334.762
		360.462,334.79 	"/>
	<polyline fill="none" stroke="#00A0C6" stroke-miterlimit="10" stroke-dasharray="3" points="384.118,341.536 384.118,341.536
		420.208,394.721 	"/>
	<polyline fill="none" stroke="#015353" stroke-width="3" stroke-miterlimit="10" points="384.118,341.536 384.118,341.536
		424.126,335.471 	"/>
	<polyline fill="none" stroke="#00A0C6" stroke-miterlimit="10" stroke-dasharray="3" points="384.118,341.536 384.118,341.536
		392.95,293.102 	"/>
	<polyline fill="none" stroke="#00A0C6" stroke-miterlimit="10" stroke-dasharray="3" points="353.806,197.521 353.806,197.521
		429.024,116.968 	"/>
	<polyline fill="none" stroke="#00A0C6" stroke-miterlimit="10" stroke-dasharray="3" points="353.806,197.521 353.806,197.521
		383.089,105.784 	"/>
	<polyline fill="none" stroke="#00A0C6" stroke-miterlimit="10" stroke-dasharray="3" points="353.806,197.521 353.806,197.521
		418.817,256.352 	"/>
	<polyline fill="none" stroke="#00A0C6" stroke-miterlimit="10" stroke-dasharray="3" points="353.806,197.521 353.806,197.521
		392.95,293.102 	"/>
	<polyline fill="none" stroke="#015353" stroke-width="3" stroke-miterlimit="10" points="91.855,183.267 91.855,183.267
		95.783,169.36 	"/>
	<polyline fill="none" stroke="#015353" stroke-width="3" stroke-miterlimit="10" points="91.855,183.267 91.855,183.267
		100.541,191.241 	"/>
	<polyline fill="none" stroke="#00A0C6" stroke-miterlimit="10" stroke-dasharray="3" points="233.194,25.919 233.194,25.919
		271.149,94.036 	"/>
	<polyline fill="none" stroke="#00A0C6" stroke-miterlimit="10" stroke-dasharray="3" points="233.194,25.919 233.194,25.919
		294.556,64.456 	"/>
	<polyline fill="none" stroke="#015353" stroke-width="3" stroke-miterlimit="10" points="30.503,363.749 30.503,363.749
		46.876,363.403 	"/>
	<polyline fill="none" stroke="#00A0C6" stroke-miterlimit="10" stroke-dasharray="3" points="30.503,363.749 30.503,363.749
		44.935,305.622 	"/>
	<polyline fill="none" stroke="#015353" stroke-width="3" stroke-miterlimit="10" points="430.935,79.688 430.935,79.688
		435.743,42.116 	"/>
	<polyline fill="none" stroke="#00A0C6" stroke-miterlimit="10" stroke-dasharray="3" points="76.736,336.122 76.736,336.122
		169.49,351.196 	"/>
	<polyline fill="none" stroke="#015353" stroke-width="3" stroke-miterlimit="10" points="76.736,336.122 76.736,336.122
		82.378,310.958 	"/>
	<polyline fill="none" stroke="#015353" stroke-width="3" stroke-miterlimit="10" points="76.736,336.122 76.736,336.122
		98.685,376.125 	"/>
	<polyline fill="none" stroke="#00A0C6" stroke-miterlimit="10" stroke-dasharray="3" points="242.079,366.793 242.079,366.793
		253.505,364.792 	"/>
	<polyline fill="none" stroke="#00A0C6" stroke-miterlimit="10" stroke-dasharray="3" points="242.079,366.793 242.079,366.793
		251.837,359.411 	"/>
	<polyline fill="none" stroke="#00A0C6" stroke-miterlimit="10" stroke-dasharray="3" points="242.079,366.793 242.079,366.793
		280.411,404.647 	"/>
	<polyline fill="none" stroke="#00A0C6" stroke-miterlimit="10" stroke-dasharray="3" points="150.503,412.569 150.503,412.569
		169.49,351.196 	"/>
	<polyline fill="none" stroke="#00A0C6" stroke-miterlimit="10" stroke-dasharray="3" points="150.503,412.569 150.503,412.569
		227.113,370.547 	"/>
	<polyline fill="none" stroke="#00A0C6" stroke-miterlimit="10" stroke-dasharray="3" points="150.503,412.569 150.503,412.569
		158.072,423.538 	"/>
	<polyline fill="none" stroke="#00A0C6" stroke-miterlimit="10" stroke-dasharray="3" points="150.503,412.569 150.503,412.569
		180.697,357.864 	"/>
	<polyline fill="none" stroke="#00A0C6" stroke-miterlimit="10" stroke-dasharray="3" points="315.442,400.135 315.442,400.135
		318.542,352.766 	"/>
	<polyline fill="none" stroke="#015353" stroke-width="3" stroke-miterlimit="10" points="315.442,400.135 315.442,400.135
		346.263,416.34 	"/>
	<polyline fill="none" stroke="#015353" stroke-width="3" stroke-miterlimit="10" points="315.442,400.135 315.442,400.135
		343.563,369.079 	"/>
	<polyline fill="none" stroke="#015353" stroke-width="3" stroke-miterlimit="10" points="348.249,105.116 348.249,105.116
		383.089,105.784 	"/>
	<polyline fill="none" stroke="#00A0C6" stroke-miterlimit="10" stroke-dasharray="3" points="348.249,105.116 348.249,105.116
		353.806,197.521 	"/>
	<polyline fill="none" stroke="#00A0C6" stroke-miterlimit="10" stroke-dasharray="3" points="169.208,144.958 169.208,144.958
		258.642,120.349 	"/>
	<polyline fill="none" stroke="#00A0C6" stroke-miterlimit="10" stroke-dasharray="3" points="169.208,144.958 169.208,144.958
		232.537,189.458 	"/>
	<polyline fill="none" stroke="#015353" stroke-width="3" stroke-miterlimit="10" points="169.208,144.958 169.208,144.958
		170.681,132.261 	"/>
	<polyline fill="none" stroke="#00A0C6" stroke-miterlimit="10" stroke-dasharray="3" points="169.208,144.958 169.208,144.958
		246.474,154.06 	"/>
	<polyline fill="none" stroke="#00A0C6" stroke-miterlimit="10" stroke-dasharray="3" points="169.208,144.958 169.208,144.958
		187.23,210.741 	"/>
	<polyline fill="none" stroke="#00A0C6" stroke-miterlimit="10" stroke-dasharray="3" points="169.208,144.958 169.208,144.958
		238.884,183.489 	"/>
	<polyline fill="none" stroke="#015353" stroke-width="3" stroke-miterlimit="10" points="336.524,229.114 336.524,229.114
		353.806,197.521 	"/>
	<polyline fill="none" stroke="#00A0C6" stroke-miterlimit="10" stroke-dasharray="3" points="336.524,229.114 336.524,229.114
		418.817,256.352 	"/>
	<polyline fill="none" stroke="#00A0C6" stroke-miterlimit="10" stroke-dasharray="3" points="336.524,229.114 336.524,229.114
		392.95,293.102 	"/>
	<polyline fill="none" stroke="#00A0C6" stroke-miterlimit="10" stroke-dasharray="3" points="336.524,229.114 336.524,229.114
		349.304,288.536 	"/>
	<polyline fill="none" stroke="#00A0C6" stroke-miterlimit="10" stroke-dasharray="3" points="39.001,167.321 39.001,167.321
		91.855,183.267 	"/>
	<polyline fill="none" stroke="#00A0C6" stroke-miterlimit="10" stroke-dasharray="3" points="39.001,167.321 39.001,167.321
		98.558,106.626 	"/>
	<polyline fill="none" stroke="#00A0C6" stroke-miterlimit="10" stroke-dasharray="3" points="39.001,167.321 39.001,167.321
		95.783,169.36 	"/>
	<polyline fill="none" stroke="#015353" stroke-width="3" stroke-miterlimit="10" points="39.001,167.321 39.001,167.321
		51.863,209.204 	"/>
	<polyline fill="none" stroke="#015353" stroke-width="3" stroke-miterlimit="10" points="151.353,174.132 151.353,174.132
		169.208,144.958 	"/>
	<polyline fill="none" stroke="#00A0C6" stroke-miterlimit="10" stroke-dasharray="3" points="151.353,174.132 151.353,174.132
		232.537,189.458 	"/>
	<polyline fill="none" stroke="#00A0C6" stroke-miterlimit="10" stroke-dasharray="3" points="151.353,174.132 151.353,174.132
		246.474,154.06 	"/>
	<polyline fill="none" stroke="#00A0C6" stroke-miterlimit="10" stroke-dasharray="3" points="151.353,174.132 151.353,174.132
		187.23,210.741 	"/>
	<polyline fill="none" stroke="#015353" stroke-width="3" stroke-miterlimit="10" points="191.777,28.526 191.777,28.526
		233.194,25.919 	"/>
	<polyline fill="none" stroke="#00A0C6" stroke-miterlimit="10" stroke-dasharray="3" points="191.777,28.526 191.777,28.526
		271.149,94.036 	"/>
	<polyline fill="none" stroke="#00A0C6" stroke-miterlimit="10" stroke-dasharray="3" points="98.558,106.626 98.558,106.626
		169.208,144.958 	"/>
	<polyline fill="none" stroke="#00A0C6" stroke-miterlimit="10" stroke-dasharray="3" points="98.558,106.626 98.558,106.626
		151.353,174.132 	"/>
	<polyline fill="none" stroke="#00A0C6" stroke-miterlimit="10" stroke-dasharray="3" points="98.558,106.626 98.558,106.626
		185.531,97.442 	"/>
	<polyline fill="none" stroke="#00A0C6" stroke-miterlimit="10" stroke-dasharray="3" points="98.558,106.626 98.558,106.626
		116.279,60.017 	"/>
	<polyline fill="none" stroke="#00A0C6" stroke-miterlimit="10" stroke-dasharray="3" points="98.558,106.626 98.558,106.626
		170.681,132.261 	"/>
	<polyline fill="none" stroke="#00A0C6" stroke-miterlimit="10" stroke-dasharray="3" points="98.558,106.626 98.558,106.626
		133.644,69.454 	"/>
	<polyline fill="none" stroke="#00A0C6" stroke-miterlimit="10" stroke-dasharray="3" points="309.868,196.892 309.868,196.892
		353.806,197.521 	"/>
	<polyline fill="none" stroke="#00A0C6" stroke-miterlimit="10" stroke-dasharray="3" points="309.868,196.892 309.868,196.892
		326.306,229.274 	"/>
	<polyline fill="none" stroke="#00A0C6" stroke-miterlimit="10" stroke-dasharray="3" points="46.876,363.403 46.876,363.403
		76.736,336.122 	"/>
	<polyline fill="none" stroke="#015353" stroke-width="3" stroke-miterlimit="10" points="46.876,363.403 46.876,363.403
		55.197,370.391 	"/>
	<polyline fill="none" stroke="#00A0C6" stroke-miterlimit="10" stroke-dasharray="3" points="424.126,335.471 424.126,335.471
		428.956,258.309 	"/>
	<polyline fill="none" stroke="#00A0C6" stroke-miterlimit="10" stroke-dasharray="3" points="82.378,310.958 82.378,310.958
		169.49,351.196 	"/>
	<polyline fill="none" stroke="#00A0C6" stroke-miterlimit="10" stroke-dasharray="3" points="82.378,310.958 82.378,310.958
		118.689,257.825 	"/>
	<polyline fill="none" stroke="#00A0C6" stroke-miterlimit="10" stroke-dasharray="3" points="82.378,310.958 82.378,310.958
		194.347,278.786 	"/>
	<polyline fill="none" stroke="#00A0C6" stroke-miterlimit="10" stroke-dasharray="3" points="82.378,310.958 82.378,310.958
		203.828,321.141 	"/>
	<polyline fill="none" stroke="#015353" stroke-width="3" stroke-miterlimit="10" points="241.222,212.603 241.222,212.603
		248.067,282.637 	"/>
	<polyline fill="none" stroke="#00A0C6" stroke-miterlimit="10" stroke-dasharray="3" points="241.222,212.603 241.222,212.603
		309.868,196.892 	"/>
	<polyline fill="none" stroke="#015353" stroke-width="3" stroke-miterlimit="10" points="241.222,212.603 241.222,212.603
		301.948,213.175 	"/>
	<polyline fill="none" stroke="#00A0C6" stroke-miterlimit="10" stroke-dasharray="3" points="241.222,212.603 241.222,212.603
		304.485,262.698 	"/>
	<polyline fill="none" stroke="#00A0C6" stroke-miterlimit="10" stroke-dasharray="3" points="241.222,212.603 241.222,212.603
		300.337,167.536 	"/>
	<polyline fill="none" stroke="#00A0C6" stroke-miterlimit="10" stroke-dasharray="3" points="14.257,432.186 14.257,432.186
		88.898,391.231 	"/>
	<polyline fill="none" stroke="#00A0C6" stroke-miterlimit="10" stroke-dasharray="3" points="14.257,432.186 14.257,432.186
		30.503,363.749 	"/>
	<polyline fill="none" stroke="#00A0C6" stroke-miterlimit="10" stroke-dasharray="3" points="14.257,432.186 14.257,432.186
		46.876,363.403 	"/>
	<polyline fill="none" stroke="#00A0C6" stroke-miterlimit="10" stroke-dasharray="3" points="14.257,432.186 14.257,432.186
		93.509,398.735 	"/>
	<polyline fill="none" stroke="#00A0C6" stroke-miterlimit="10" stroke-dasharray="3" points="14.257,432.186 14.257,432.186
		55.197,370.391 	"/>
	<polyline fill="none" stroke="#00A0C6" stroke-miterlimit="10" stroke-dasharray="3" points="223.767,354.938 223.767,354.938
		251.837,359.411 	"/>
	<polyline fill="none" stroke="#00A0C6" stroke-miterlimit="10" stroke-dasharray="3" points="223.767,354.938 223.767,354.938
		248.067,282.637 	"/>
	<polyline fill="none" stroke="#015353" stroke-width="3" stroke-miterlimit="10" points="223.767,354.938 223.767,354.938
		227.113,370.547 	"/>
	<polyline fill="none" stroke="#00A0C6" stroke-miterlimit="10" stroke-dasharray="3" points="223.767,354.938 223.767,354.938
		242.079,366.793 	"/>
	<polyline fill="none" stroke="#00A0C6" stroke-miterlimit="10" stroke-dasharray="3" points="271.149,94.036 271.149,94.036
		314.47,82.823 	"/>
	<polyline fill="none" stroke="#00A0C6" stroke-miterlimit="10" stroke-dasharray="3" points="271.149,94.036 271.149,94.036
		307.665,148.233 	"/>
	<polyline fill="none" stroke="#015353" stroke-width="3" stroke-miterlimit="10" points="271.149,94.036 271.149,94.036
		294.556,64.456 	"/>
	<polyline fill="none" stroke="#00A0C6" stroke-miterlimit="10" stroke-dasharray="3" points="53.607,218.743 53.607,218.743
		65.679,249.456 	"/>
	<polyline fill="none" stroke="#015353" stroke-width="3" stroke-miterlimit="10" points="53.607,218.743 53.607,218.743
		61.173,214.989 	"/>
	<polyline fill="none" stroke="#015353" stroke-width="3" stroke-miterlimit="10" points="185.531,97.442 185.531,97.442
		189.099,57.013 	"/>
	<polyline fill="none" stroke="#00A0C6" stroke-miterlimit="10" stroke-dasharray="3" points="185.531,97.442 185.531,97.442
		258.642,120.349 	"/>
	<polyline fill="none" stroke="#00A0C6" stroke-miterlimit="10" stroke-dasharray="3" points="185.531,97.442 185.531,97.442
		271.149,94.036 	"/>
	<polyline fill="none" stroke="#00A0C6" stroke-miterlimit="10" stroke-dasharray="3" points="185.531,97.442 185.531,97.442
		232.537,189.458 	"/>
	<polyline fill="none" stroke="#00A0C6" stroke-miterlimit="10" stroke-dasharray="3" points="185.531,97.442 185.531,97.442
		246.474,154.06 	"/>
	<polyline fill="none" stroke="#015353" stroke-width="3" stroke-miterlimit="10" points="418.817,256.352 418.817,256.352
		428.956,258.309 	"/>
	<polyline fill="none" stroke="#00A0C6" stroke-miterlimit="10" stroke-dasharray="3" points="418.817,256.352 418.817,256.352
		429.024,116.968 	"/>
	<polyline fill="none" stroke="#00A0C6" stroke-miterlimit="10" stroke-dasharray="3" points="418.817,256.352 418.817,256.352
		424.126,335.471 	"/>
	<polyline fill="none" stroke="#00A0C6" stroke-miterlimit="10" stroke-dasharray="3" points="116.279,60.017 116.279,60.017
		157.203,22.169 	"/>
	<polyline fill="none" stroke="#00A0C6" stroke-miterlimit="10" stroke-dasharray="3" points="116.279,60.017 116.279,60.017
		159.564,41.938 	"/>
	<polyline fill="none" stroke="#015353" stroke-width="3" stroke-miterlimit="10" points="116.279,60.017 116.279,60.017
		133.644,69.454 	"/>
	<polyline fill="none" stroke="#00A0C6" stroke-miterlimit="10" stroke-dasharray="3" points="24.439,293.026 24.439,293.026
		65.679,249.456 	"/>
	<polyline fill="none" stroke="#00A0C6" stroke-miterlimit="10" stroke-dasharray="3" points="24.439,293.026 24.439,293.026
		30.503,363.749 	"/>
	<polyline fill="none" stroke="#00A0C6" stroke-miterlimit="10" stroke-dasharray="3" points="24.439,293.026 24.439,293.026
		41.63,237.735 	"/>
	<polyline fill="none" stroke="#015353" stroke-width="3" stroke-miterlimit="10" points="24.439,293.026 24.439,293.026
		44.935,305.622 	"/>
	<polyline fill="none" stroke="#00A0C6" stroke-miterlimit="10" stroke-dasharray="3" points="180.697,357.864 180.697,357.864
		227.113,370.547 	"/>
	<polyline fill="none" stroke="#015353" stroke-width="3" stroke-miterlimit="10" points="180.697,357.864 180.697,357.864
		181.621,356.225 	"/>
	<polyline fill="none" stroke="#00A0C6" stroke-miterlimit="10" stroke-dasharray="3" points="180.697,357.864 180.697,357.864
		189.123,423.092 	"/>
	<polyline fill="none" stroke="#00A0C6" stroke-miterlimit="10" stroke-dasharray="3" points="301.948,213.175 301.948,213.175
		353.806,197.521 	"/>
	<polyline fill="none" stroke="#015353" stroke-width="3" stroke-miterlimit="10" points="301.948,213.175 301.948,213.175
		309.868,196.892 	"/>
	<polyline fill="none" stroke="#00A0C6" stroke-miterlimit="10" stroke-dasharray="3" points="301.948,213.175 301.948,213.175
		304.485,262.698 	"/>
	<polyline fill="none" stroke="#015353" stroke-width="3" stroke-miterlimit="10" points="301.948,213.175 301.948,213.175
		326.306,229.274 	"/>
	<polyline fill="none" stroke="#00A0C6" stroke-miterlimit="10" stroke-dasharray="3" points="118.689,257.825 118.689,257.825
		169.49,351.196 	"/>
	<polyline fill="none" stroke="#00A0C6" stroke-miterlimit="10" stroke-dasharray="3" points="118.689,257.825 118.689,257.825
		137.128,204.675 	"/>
	<polyline fill="none" stroke="#015353" stroke-width="3" stroke-miterlimit="10" points="118.689,257.825 118.689,257.825
		194.347,278.786 	"/>
	<polyline fill="none" stroke="#00A0C6" stroke-miterlimit="10" stroke-dasharray="3" points="118.689,257.825 118.689,257.825
		187.23,210.741 	"/>
	<polyline fill="none" stroke="#00A0C6" stroke-miterlimit="10" stroke-dasharray="3" points="307.028,295.368 307.028,295.368
		318.542,352.766 	"/>
	<polyline fill="none" stroke="#00A0C6" stroke-miterlimit="10" stroke-dasharray="3" points="307.028,295.368 307.028,295.368
		352.315,323.014 	"/>
	<polyline fill="none" stroke="#015353" stroke-width="3" stroke-miterlimit="10" points="307.028,295.368 307.028,295.368
		349.304,288.536 	"/>
	<polyline fill="none" stroke="#015353" stroke-width="3" stroke-miterlimit="10" points="41.63,237.735 41.63,237.735
		65.679,249.456 	"/>
	<polyline fill="none" stroke="#015353" stroke-width="3" stroke-miterlimit="10" points="41.63,237.735 41.63,237.735
		53.607,218.743 	"/>
	<polyline fill="none" stroke="#00A0C6" stroke-miterlimit="10" stroke-dasharray="3" points="41.63,237.735 41.63,237.735
		44.935,305.622 	"/>
	<polyline fill="none" stroke="#00A0C6" stroke-miterlimit="10" stroke-dasharray="3" points="95.783,169.36 95.783,169.36
		151.353,174.132 	"/>
	<polyline fill="none" stroke="#015353" stroke-width="3" stroke-miterlimit="10" points="95.783,169.36 95.783,169.36
		98.558,106.626 	"/>
	<polyline fill="none" stroke="#00A0C6" stroke-miterlimit="10" stroke-dasharray="3" points="95.783,169.36 95.783,169.36
		170.681,132.261 	"/>
	<polyline fill="none" stroke="#00A0C6" stroke-miterlimit="10" stroke-dasharray="3" points="98.685,376.125 98.685,376.125
		169.49,351.196 	"/>
	<polyline fill="none" stroke="#00A0C6" stroke-miterlimit="10" stroke-dasharray="3" points="98.685,376.125 98.685,376.125
		150.503,412.569 	"/>
	<polyline fill="none" stroke="#00A0C6" stroke-miterlimit="10" stroke-dasharray="3" points="98.685,376.125 98.685,376.125
		125.574,421.059 	"/>
	<polyline fill="none" stroke="#00A0C6" stroke-miterlimit="10" stroke-dasharray="3" points="98.685,376.125 98.685,376.125
		148.628,416.188 	"/>
	<polyline fill="none" stroke="#00A0C6" stroke-miterlimit="10" stroke-dasharray="3" points="392.95,293.102 392.95,293.102
		428.956,258.309 	"/>
	<polyline fill="none" stroke="#00A0C6" stroke-miterlimit="10" stroke-dasharray="3" points="392.95,293.102 392.95,293.102
		424.126,335.471 	"/>
	<polyline fill="none" stroke="#015353" stroke-width="3" stroke-miterlimit="10" points="392.95,293.102 392.95,293.102
		418.817,256.352 	"/>
	<polyline fill="none" stroke="#015353" stroke-width="3" stroke-miterlimit="10" points="137.128,204.675 137.128,204.675
		151.353,174.132 	"/>
	<polyline fill="none" stroke="#00A0C6" stroke-miterlimit="10" stroke-dasharray="3" points="137.128,204.675 137.128,204.675
		194.347,278.786 	"/>
	<polyline fill="none" stroke="#00A0C6" stroke-miterlimit="10" stroke-dasharray="3" points="137.128,204.675 137.128,204.675
		187.23,210.741 	"/>
	<polyline fill="none" stroke="#00A0C6" stroke-miterlimit="10" stroke-dasharray="3" points="307.665,148.233 307.665,148.233
		314.47,82.823 	"/>
	<polyline fill="none" stroke="#00A0C6" stroke-miterlimit="10" stroke-dasharray="3" points="307.665,148.233 307.665,148.233
		353.806,197.521 	"/>
	<polyline fill="none" stroke="#015353" stroke-width="3" stroke-miterlimit="10" points="307.665,148.233 307.665,148.233
		348.249,105.116 	"/>
	<polyline fill="none" stroke="#015353" stroke-width="3" stroke-miterlimit="10" points="352.315,323.014 352.315,323.014
		363.716,306.559 	"/>
	<polyline fill="none" stroke="#015353" stroke-width="3" stroke-miterlimit="10" points="352.315,323.014 352.315,323.014
		356.028,334.762 	"/>
	<polyline fill="none" stroke="#00A0C6" stroke-miterlimit="10" stroke-dasharray="3" points="352.315,323.014 352.315,323.014
		360.462,334.79 	"/>
	<polyline fill="none" stroke="#015353" stroke-width="3" stroke-miterlimit="10" points="194.347,278.786 194.347,278.786
		248.067,282.637 	"/>
	<polyline fill="none" stroke="#00A0C6" stroke-miterlimit="10" stroke-dasharray="3" points="194.347,278.786 194.347,278.786
		241.222,212.603 	"/>
	<polyline fill="none" stroke="#015353" stroke-width="3" stroke-miterlimit="10" points="194.347,278.786 194.347,278.786
		203.828,321.141 	"/>
	<polyline fill="none" stroke="#015353" stroke-width="3" stroke-miterlimit="10" points="232.537,189.458 232.537,189.458
		241.222,212.603 	"/>
	<polyline fill="none" stroke="#00A0C6" stroke-miterlimit="10" stroke-dasharray="3" points="232.537,189.458 232.537,189.458
		301.948,213.175 	"/>
	<polyline fill="none" stroke="#015353" stroke-width="3" stroke-miterlimit="10" points="232.537,189.458 232.537,189.458
		238.884,183.489 	"/>
	<polyline fill="none" stroke="#00A0C6" stroke-miterlimit="10" stroke-dasharray="3" points="280.411,404.647 280.411,404.647
		318.542,352.766 	"/>
	<polyline fill="none" stroke="#015353" stroke-width="3" stroke-miterlimit="10" points="280.411,404.647 280.411,404.647
		315.442,400.135 	"/>
	<polyline fill="none" stroke="#00A0C6" stroke-miterlimit="10" stroke-dasharray="3" points="170.681,132.261 170.681,132.261
		258.642,120.349 	"/>
	<polyline fill="none" stroke="#015353" stroke-width="3" stroke-miterlimit="10" points="170.681,132.261 170.681,132.261
		185.531,97.442 	"/>
	<polyline fill="none" stroke="#00A0C6" stroke-miterlimit="10" stroke-dasharray="3" points="170.681,132.261 170.681,132.261
		246.474,154.06 	"/>
	<polyline fill="none" stroke="#00A0C6" stroke-miterlimit="10" stroke-dasharray="3" points="170.681,132.261 170.681,132.261
		238.884,183.489 	"/>
	<polyline fill="none" stroke="#015353" stroke-width="3" stroke-miterlimit="10" points="27.861,116.241 27.861,116.241
		39.001,167.321 	"/>
	<polyline fill="none" stroke="#015353" stroke-width="3" stroke-miterlimit="10" points="27.861,116.241 27.861,116.241
		98.558,106.626 	"/>
	<polyline fill="none" stroke="#00A0C6" stroke-miterlimit="10" stroke-dasharray="3" points="27.861,116.241 27.861,116.241
		95.783,169.36 	"/>
	<polyline fill="none" stroke="#015353" stroke-width="3" stroke-miterlimit="10" points="304.485,262.698 304.485,262.698
		307.028,295.368 	"/>
	<polyline fill="none" stroke="#015353" stroke-width="3" stroke-miterlimit="10" points="304.485,262.698 304.485,262.698
		326.306,229.274 	"/>
	<polyline fill="none" stroke="#00A0C6" stroke-miterlimit="10" stroke-dasharray="3" points="304.485,262.698 304.485,262.698
		349.304,288.536 	"/>
	<polyline fill="none" stroke="#00A0C6" stroke-miterlimit="10" stroke-dasharray="3" points="203.828,321.141 203.828,321.141
		248.067,282.637 	"/>
	<polyline fill="none" stroke="#015353" stroke-width="3" stroke-miterlimit="10" points="203.828,321.141 203.828,321.141
		223.767,354.938 	"/>
	<polyline fill="none" stroke="#015353" stroke-width="3" stroke-miterlimit="10" points="326.306,229.274 326.306,229.274
		336.524,229.114 	"/>
	<polyline fill="none" stroke="#00A0C6" stroke-miterlimit="10" stroke-dasharray="3" points="326.306,229.274 326.306,229.274
		349.304,288.536 	"/>
	<polyline fill="none" stroke="#015353" stroke-width="3" stroke-miterlimit="10" points="125.574,421.059 125.574,421.059
		148.628,416.188 	"/>
	<polyline fill="none" stroke="#00A0C6" stroke-miterlimit="10" stroke-dasharray="3" points="159.564,41.938 159.564,41.938
		189.099,57.013 	"/>
	<polyline fill="none" stroke="#00A0C6" stroke-miterlimit="10" stroke-dasharray="3" points="159.564,41.938 159.564,41.938
		191.777,28.526 	"/>
	<polyline fill="none" stroke="#015353" stroke-width="3" stroke-miterlimit="10" points="159.564,41.938 159.564,41.938
		161.291,50.276 	"/>
	<polyline fill="none" stroke="#00A0C6" stroke-miterlimit="10" stroke-dasharray="3" points="159.564,41.938 159.564,41.938
		165.441,17.813 	"/>
	<polyline fill="none" stroke="#00A0C6" stroke-miterlimit="10" stroke-dasharray="3" points="300.337,167.536 300.337,167.536
		353.806,197.521 	"/>
	<polyline fill="none" stroke="#015353" stroke-width="3" stroke-miterlimit="10" points="300.337,167.536 300.337,167.536
		309.868,196.892 	"/>
	<polyline fill="none" stroke="#015353" stroke-width="3" stroke-miterlimit="10" points="300.337,167.536 300.337,167.536
		307.665,148.233 	"/>
	<polyline fill="none" stroke="#015353" stroke-width="3" stroke-miterlimit="10" points="409.925,420.526 409.925,420.526
		420.208,394.721 	"/>
	<polyline fill="none" stroke="#015353" stroke-width="3" stroke-miterlimit="10" points="269.005,353.624 269.005,353.624
		318.542,352.766 	"/>
	<polyline fill="none" stroke="#00A0C6" stroke-miterlimit="10" stroke-dasharray="3" points="269.005,353.624 269.005,353.624
		315.442,400.135 	"/>
	<polyline fill="none" stroke="#00A0C6" stroke-miterlimit="10" stroke-dasharray="3" points="269.005,353.624 269.005,353.624
		307.028,295.368 	"/>
	<polyline fill="none" stroke="#00A0C6" stroke-miterlimit="10" stroke-dasharray="3" points="269.005,353.624 269.005,353.624
		280.411,404.647 	"/>
	<polyline fill="none" stroke="#00A0C6" stroke-miterlimit="10" stroke-dasharray="3" points="181.621,356.225 181.621,356.225
		227.113,370.547 	"/>
	<polyline fill="none" stroke="#015353" stroke-width="3" stroke-miterlimit="10" points="181.621,356.225 181.621,356.225
		223.767,354.938 	"/>
	<polyline fill="none" stroke="#015353" stroke-width="3" stroke-miterlimit="10" points="181.621,356.225 181.621,356.225
		203.828,321.141 	"/>
	<polyline fill="none" stroke="#015353" stroke-width="3" stroke-miterlimit="10" points="161.291,50.276 161.291,50.276
		189.099,57.013 	"/>
	<polyline fill="none" stroke="#00A0C6" stroke-miterlimit="10" stroke-dasharray="3" points="161.291,50.276 161.291,50.276
		191.777,28.526 	"/>
	<polyline fill="none" stroke="#00A0C6" stroke-miterlimit="10" stroke-dasharray="3" points="161.291,50.276 161.291,50.276
		185.531,97.442 	"/>
	<polyline fill="none" stroke="#00A0C6" stroke-miterlimit="10" stroke-dasharray="3" points="321.274,73.7 321.274,73.7
		435.743,42.116 	"/>
	<polyline fill="none" stroke="#00A0C6" stroke-miterlimit="10" stroke-dasharray="3" points="321.274,73.7 321.274,73.7
		348.249,105.116 	"/>
	<polyline fill="none" stroke="#00A0C6" stroke-miterlimit="10" stroke-dasharray="3" points="44.935,305.622 44.935,305.622
		65.679,249.456 	"/>
	<polyline fill="none" stroke="#00A0C6" stroke-miterlimit="10" stroke-dasharray="3" points="44.935,305.622 44.935,305.622
		76.736,336.122 	"/>
	<polyline fill="none" stroke="#00A0C6" stroke-miterlimit="10" stroke-dasharray="3" points="44.935,305.622 44.935,305.622
		46.876,363.403 	"/>
	<polyline fill="none" stroke="#015353" stroke-width="3" stroke-miterlimit="10" points="44.935,305.622 44.935,305.622
		82.378,310.958 	"/>
	<polyline fill="none" stroke="#00A0C6" stroke-miterlimit="10" stroke-dasharray="3" points="346.263,416.34 346.263,416.34
		420.208,394.721 	"/>
	<polyline fill="none" stroke="#015353" stroke-width="3" stroke-miterlimit="10" points="346.263,416.34 346.263,416.34
		409.925,420.526 	"/>
	<polyline fill="none" stroke="#00A0C6" stroke-miterlimit="10" stroke-dasharray="3" points="93.509,398.735 93.509,398.735
		98.685,376.125 	"/>
	<polyline fill="none" stroke="#015353" stroke-width="3" stroke-miterlimit="10" points="93.509,398.735 93.509,398.735
		125.574,421.059 	"/>
	<polyline fill="none" stroke="#00A0C6" stroke-miterlimit="10" stroke-dasharray="3" points="360.462,334.79 360.462,334.79
		363.716,306.559 	"/>
	<polyline fill="none" stroke="#015353" stroke-width="3" stroke-miterlimit="10" points="360.462,334.79 360.462,334.79
		384.118,341.536 	"/>
	<polyline fill="none" stroke="#00A0C6" stroke-miterlimit="10" stroke-dasharray="3" points="193.248,427.649 193.248,427.649
		227.113,370.547 	"/>
	<polyline fill="none" stroke="#00A0C6" stroke-miterlimit="10" stroke-dasharray="3" points="193.248,427.649 193.248,427.649
		280.411,404.647 	"/>
	<polyline fill="none" stroke="#00A0C6" stroke-miterlimit="10" stroke-dasharray="3" points="61.173,214.989 61.173,214.989
		65.679,249.456 	"/>
	<polyline fill="none" stroke="#00A0C6" stroke-miterlimit="10" stroke-dasharray="3" points="61.173,214.989 61.173,214.989
		111.751,210.909 	"/>
	<polyline fill="none" stroke="#00A0C6" stroke-miterlimit="10" stroke-dasharray="3" points="61.173,214.989 61.173,214.989
		91.855,183.267 	"/>
	<polyline fill="none" stroke="#00A0C6" stroke-miterlimit="10" stroke-dasharray="3" points="61.173,214.989 61.173,214.989
		118.689,257.825 	"/>
	<polyline fill="none" stroke="#00A0C6" stroke-miterlimit="10" stroke-dasharray="3" points="61.173,214.989 61.173,214.989
		100.541,191.241 	"/>
	<polyline fill="none" stroke="#015353" stroke-width="3" stroke-miterlimit="10" points="349.304,288.536 349.304,288.536
		363.716,306.559 	"/>
	<polyline fill="none" stroke="#00A0C6" stroke-miterlimit="10" stroke-dasharray="3" points="349.304,288.536 349.304,288.536
		392.95,293.102 	"/>
	<polyline fill="none" stroke="#00A0C6" stroke-miterlimit="10" stroke-dasharray="3" points="349.304,288.536 349.304,288.536
		352.315,323.014 	"/>
	<polyline fill="none" stroke="#015353" stroke-width="3" stroke-miterlimit="10" points="148.628,416.188 148.628,416.188
		158.072,423.538 	"/>
	<polyline fill="none" stroke="#015353" stroke-width="3" stroke-miterlimit="10" points="148.628,416.188 148.628,416.188
		150.503,412.569 	"/>
	<polyline fill="none" stroke="#015353" stroke-width="3" stroke-miterlimit="10" points="55.197,370.391 55.197,370.391
		88.898,391.231 	"/>
	<polyline fill="none" stroke="#00A0C6" stroke-miterlimit="10" stroke-dasharray="3" points="55.197,370.391 55.197,370.391
		76.736,336.122 	"/>
	<polyline fill="none" stroke="#00A0C6" stroke-miterlimit="10" stroke-dasharray="3" points="55.197,370.391 55.197,370.391
		98.685,376.125 	"/>
	<polyline fill="none" stroke="#015353" stroke-width="3" stroke-miterlimit="10" points="100.541,191.241 100.541,191.241
		111.751,210.909 	"/>
	<polyline fill="none" stroke="#00A0C6" stroke-miterlimit="10" stroke-dasharray="3" points="100.541,191.241 100.541,191.241
		151.353,174.132 	"/>
	<polyline fill="none" stroke="#00A0C6" stroke-miterlimit="10" stroke-dasharray="3" points="100.541,191.241 100.541,191.241
		137.128,204.675 	"/>
	<polyline fill="none" stroke="#00A0C6" stroke-miterlimit="10" stroke-dasharray="3" points="165.441,17.813 165.441,17.813
		189.099,57.013 	"/>
	<polyline fill="none" stroke="#015353" stroke-width="3" stroke-miterlimit="10" points="165.441,17.813 165.441,17.813
		191.777,28.526 	"/>
	<polyline fill="none" stroke="#00A0C6" stroke-miterlimit="10" stroke-dasharray="3" points="133.644,69.454 133.644,69.454
		185.531,97.442 	"/>
	<polyline fill="none" stroke="#00A0C6" stroke-miterlimit="10" stroke-dasharray="3" points="133.644,69.454 133.644,69.454
		170.681,132.261 	"/>
	<polyline fill="none" stroke="#00A0C6" stroke-miterlimit="10" stroke-dasharray="3" points="133.644,69.454 133.644,69.454
		159.564,41.938 	"/>
	<polyline fill="none" stroke="#015353" stroke-width="3" stroke-miterlimit="10" points="133.644,69.454 133.644,69.454
		161.291,50.276 	"/>
	<polyline fill="none" stroke="#00A0C6" stroke-miterlimit="10" stroke-dasharray="3" points="51.863,209.204 51.863,209.204
		91.855,183.267 	"/>
	<polyline fill="none" stroke="#015353" stroke-width="3" stroke-miterlimit="10" points="51.863,209.204 51.863,209.204
		53.607,218.743 	"/>
	<polyline fill="none" stroke="#00A0C6" stroke-miterlimit="10" stroke-dasharray="3" points="51.863,209.204 51.863,209.204
		61.173,214.989 	"/>
	<polyline fill="none" stroke="#015353" stroke-width="3" stroke-miterlimit="10" points="246.474,154.06 246.474,154.06
		258.642,120.349 	"/>
	<polyline fill="none" stroke="#00A0C6" stroke-miterlimit="10" stroke-dasharray="3" points="246.474,154.06 246.474,154.06
		301.948,213.175 	"/>
	<polyline fill="none" stroke="#00A0C6" stroke-miterlimit="10" stroke-dasharray="3" points="246.474,154.06 246.474,154.06
		307.665,148.233 	"/>
	<polyline fill="none" stroke="#015353" stroke-width="3" stroke-miterlimit="10" points="246.474,154.06 246.474,154.06
		300.337,167.536 	"/>
	<polyline fill="none" stroke="#00A0C6" stroke-miterlimit="10" stroke-dasharray="3" points="187.23,210.741 187.23,210.741
		248.067,282.637 	"/>
	<polyline fill="none" stroke="#00A0C6" stroke-miterlimit="10" stroke-dasharray="3" points="187.23,210.741 187.23,210.741
		241.222,212.603 	"/>
	<polyline fill="none" stroke="#015353" stroke-width="3" stroke-miterlimit="10" points="187.23,210.741 187.23,210.741
		194.347,278.786 	"/>
	<polyline fill="none" stroke="#00A0C6" stroke-miterlimit="10" stroke-dasharray="3" points="187.23,210.741 187.23,210.741
		232.537,189.458 	"/>
	<polyline fill="none" stroke="#00A0C6" stroke-miterlimit="10" stroke-dasharray="3" points="343.563,369.079 343.563,369.079
		420.208,394.721 	"/>
	<polyline fill="none" stroke="#00A0C6" stroke-miterlimit="10" stroke-dasharray="3" points="343.563,369.079 343.563,369.079
		409.925,420.526 	"/>
	<polyline fill="none" stroke="#00A0C6" stroke-miterlimit="10" stroke-dasharray="3" points="343.563,369.079 343.563,369.079
		346.263,416.34 	"/>
	<polyline fill="none" stroke="#015353" stroke-width="3" stroke-miterlimit="10" points="343.563,369.079 343.563,369.079
		345.216,363.93 	"/>
	<polyline fill="none" stroke="#00A0C6" stroke-miterlimit="10" stroke-dasharray="3" points="238.884,183.489 238.884,183.489
		309.868,196.892 	"/>
	<polyline fill="none" stroke="#00A0C6" stroke-miterlimit="10" stroke-dasharray="3" points="238.884,183.489 238.884,183.489
		241.222,212.603 	"/>
	<polyline fill="none" stroke="#00A0C6" stroke-miterlimit="10" stroke-dasharray="3" points="238.884,183.489 238.884,183.489
		301.948,213.175 	"/>
	<polyline fill="none" stroke="#00A0C6" stroke-miterlimit="10" stroke-dasharray="3" points="238.884,183.489 238.884,183.489
		300.337,167.536 	"/>
	<polyline fill="none" stroke="#015353" stroke-width="3" stroke-miterlimit="10" points="238.884,183.489 238.884,183.489
		246.474,154.06 	"/>
	<polyline fill="none" stroke="#00A0C6" stroke-miterlimit="10" stroke-dasharray="3" points="345.216,363.93 345.216,363.93
		420.208,394.721 	"/>
	<polyline fill="none" stroke="#015353" stroke-width="3" stroke-miterlimit="10" points="345.216,363.93 345.216,363.93
		356.028,334.762 	"/>
	<polyline fill="none" stroke="#00A0C6" stroke-miterlimit="10" stroke-dasharray="3" points="345.216,363.93 345.216,363.93
		384.118,341.536 	"/>
	<polyline fill="none" stroke="#00A0C6" stroke-miterlimit="10" stroke-dasharray="3" points="345.216,363.93 345.216,363.93
		409.925,420.526 	"/>
	<polyline fill="none" stroke="#00A0C6" stroke-miterlimit="10" stroke-dasharray="3" points="345.216,363.93 345.216,363.93
		360.462,334.79 	"/>
	<polyline fill="none" stroke="#00A0C6" stroke-miterlimit="10" stroke-dasharray="3" points="189.123,423.092 189.123,423.092
		189.986,429.215 	"/>
	<polyline fill="none" stroke="#00A0C6" stroke-miterlimit="10" stroke-dasharray="3" points="189.123,423.092 189.123,423.092
		227.113,370.547 	"/>
	<polyline fill="none" stroke="#00A0C6" stroke-miterlimit="10" stroke-dasharray="3" points="189.123,423.092 189.123,423.092
		193.248,427.649 	"/>
	<polyline fill="none" stroke="#00A0C6" stroke-miterlimit="10" stroke-dasharray="3" points="294.556,64.456 294.556,64.456
		314.47,82.823 	"/>
	<polyline fill="none" stroke="#00A0C6" stroke-miterlimit="10" stroke-dasharray="3" points="294.556,64.456 294.556,64.456
		321.274,73.7 	"/>
	<path fill="#FF0000" stroke="#000000" d="M194.24,429.215L194.24,429.215v-0.006c-0.002-1.127-0.453-2.209-1.25-3.002
		c-0.799-0.797-1.879-1.246-3.006-1.242c-1.129,0-2.209,0.447-3.006,1.244s-1.242,1.877-1.242,3.006s0.445,2.209,1.242,3.006
		s1.877,1.244,3.006,1.244c1.127,0.004,2.207-0.445,3.006-1.238c0.797-0.797,1.248-1.879,1.25-3.004V429.215z"/>
	<path fill="#FF0000" stroke="#000000" d="M367.97,306.559L367.97,306.559v-0.008c-0.004-1.127-0.453-2.207-1.252-3.002
		c-0.797-0.797-1.877-1.242-3.006-1.242s-2.207,0.447-3.004,1.244c-0.797,0.801-1.244,1.883-1.244,3.008
		c0,1.127,0.447,2.207,1.244,3.004s1.875,1.246,3.004,1.25c1.129,0,2.209-0.445,3.006-1.242c0.799-0.797,1.248-1.879,1.252-3.004
		V306.559z"/>
	<path fill="#FF0000" stroke="#000000" d="M173.742,351.196L173.742,351.196v-0.008c-0.004-1.127-0.451-2.207-1.25-3.002
		c-0.799-0.797-1.879-1.242-3.008-1.242c-1.127,0-2.207,0.447-3.002,1.244c-0.797,0.801-1.246,1.879-1.246,3.008
		c0,1.127,0.449,2.207,1.246,3.004c0.795,0.797,1.875,1.246,3.002,1.25c1.129,0,2.209-0.449,3.008-1.242
		c0.799-0.797,1.246-1.879,1.25-3.004V351.196z"/>
	<path fill="#FF0000" stroke="#000000" d="M257.757,364.792L257.757,364.792v-0.01c0-1.127-0.451-2.205-1.248-3.002
		c-0.801-0.797-1.881-1.242-3.006-1.242c-1.127,0.002-2.209,0.451-3.006,1.248s-1.242,1.879-1.242,3.006
		c0,1.125,0.445,2.205,1.242,3.002c0.797,0.801,1.879,1.25,3.006,1.25c1.125,0,2.205-0.445,3.006-1.242
		c0.797-0.795,1.248-1.875,1.248-3.004V364.792z"/>
	<path fill="#FF0000" stroke="#000000" d="M69.931,249.456L69.931,249.456v-0.006c-0.002-1.129-0.451-2.209-1.25-3.004
		c-0.797-0.797-1.879-1.242-3.006-1.242s-2.207,0.449-3.004,1.246c-0.797,0.801-1.244,1.881-1.244,3.006
		c0,1.127,0.447,2.209,1.244,3.006s1.877,1.246,3.004,1.248c1.127,0,2.209-0.445,3.006-1.242c0.799-0.797,1.248-1.875,1.25-3.002
		V249.456z"/>
	<path fill="#FF0000" stroke="#000000" d="M256.087,359.411L256.087,359.411v-0.01c-0.004-1.125-0.451-2.205-1.248-3.002
		c-0.799-0.795-1.881-1.242-3.01-1.24c-1.125,0-2.205,0.447-3.002,1.244s-1.244,1.879-1.244,3.008c0,1.127,0.447,2.207,1.244,3.004
		s1.877,1.246,3.002,1.246c1.129,0.004,2.211-0.445,3.01-1.242c0.797-0.793,1.244-1.875,1.248-3.004V359.411z"/>
	<path fill="#FF0000" stroke="#000000" d="M252.319,282.637L252.319,282.637v-0.008c0-1.125-0.451-2.207-1.248-3.004
		c-0.797-0.793-1.879-1.242-3.006-1.242c-1.127,0.004-2.209,0.451-3.006,1.248c-0.793,0.797-1.242,1.877-1.242,3.006
		c0,1.125,0.449,2.207,1.242,3.006c0.797,0.797,1.879,1.244,3.006,1.244s2.209-0.445,3.006-1.242
		c0.797-0.793,1.248-1.875,1.248-3.002V282.637z"/>
	<path fill="#FF0000" stroke="#000000" d="M424.458,394.721L424.458,394.721v-0.006c-0.002-1.129-0.449-2.209-1.246-3.004
		c-0.801-0.797-1.883-1.244-3.01-1.242c-1.125,0-2.205,0.449-3.002,1.246s-1.246,1.879-1.246,3.006s0.449,2.209,1.246,3.006
		s1.877,1.246,3.002,1.246c1.127,0.002,2.209-0.445,3.01-1.24c0.797-0.797,1.244-1.877,1.246-3.002V394.721z"/>
	<path fill="#FF0000" stroke="#000000" d="M433.208,258.309L433.208,258.309v-0.008c-0.004-1.129-0.453-2.207-1.25-3.004
		c-0.799-0.797-1.879-1.242-3.004-1.242c-1.129,0.004-2.211,0.451-3.008,1.248s-1.244,1.877-1.244,3.006
		c0,1.125,0.447,2.207,1.244,3.004s1.879,1.246,3.008,1.246c1.125,0,2.205-0.445,3.004-1.242c0.797-0.797,1.246-1.875,1.25-3.002
		V258.309z"/>
	<path fill="#FF0000" stroke="#000000" d="M231.367,370.547L231.367,370.547v-0.008c-0.002-1.125-0.451-2.207-1.252-3.004
		c-0.799-0.793-1.877-1.242-3.004-1.238c-1.129,0-2.209,0.449-3.006,1.246s-1.244,1.877-1.244,3.004
		c0,1.129,0.447,2.211,1.244,3.008s1.877,1.244,3.006,1.244c1.127,0.002,2.205-0.445,3.004-1.24c0.801-0.797,1.25-1.877,1.252-3.002
		V370.547z"/>
	<path fill="#FF0000" stroke="#000000" d="M322.796,352.766L322.796,352.766v-0.01c-0.002-1.127-0.451-2.205-1.252-3.002
		c-0.797-0.797-1.877-1.242-3.004-1.242c-1.125,0.002-2.207,0.449-3.004,1.246s-1.246,1.879-1.246,3.008
		c0,1.125,0.449,2.205,1.246,3.004c0.797,0.797,1.879,1.246,3.004,1.246c1.127,0,2.207-0.445,3.004-1.242
		c0.801-0.793,1.25-1.875,1.252-3.004V352.766z"/>
	<path fill="#FF0000" stroke="#000000" d="M162.324,423.538L162.324,423.538v-0.006c-0.002-1.129-0.451-2.209-1.248-3.004
		c-0.799-0.797-1.881-1.242-3.008-1.242s-2.207,0.449-3.004,1.246c-0.797,0.801-1.244,1.881-1.244,3.006
		c0,1.127,0.447,2.209,1.244,3.006s1.877,1.246,3.004,1.248c1.127,0,2.209-0.445,3.008-1.242c0.797-0.797,1.246-1.875,1.248-3.002
		V423.538z"/>
	<path fill="#FF0000" stroke="#000000" d="M161.455,22.169L161.455,22.169v-0.008c-0.002-1.125-0.449-2.207-1.248-3.002
		s-1.881-1.242-3.006-1.242c-1.129,0.002-2.209,0.449-3.004,1.246c-0.797,0.799-1.246,1.881-1.246,3.006
		c0,1.127,0.449,2.207,1.246,3.006c0.795,0.797,1.875,1.246,3.004,1.248c1.125,0,2.207-0.445,3.006-1.242s1.246-1.875,1.248-3.004
		V22.169z"/>
	<path fill="#FF0000" stroke="#000000" d="M433.274,116.968L433.274,116.968v-0.006c-0.004-1.129-0.451-2.209-1.248-3.004
		c-0.799-0.797-1.881-1.242-3.006-1.242c-1.129,0.002-2.209,0.449-3.006,1.246c-0.797,0.799-1.244,1.879-1.244,3.006
		s0.447,2.209,1.244,3.006s1.877,1.246,3.006,1.246c1.125,0,2.207-0.445,3.006-1.242c0.797-0.795,1.244-1.875,1.248-3.002V116.968z"
		/>
	<path fill="#FF0000" stroke="#000000" d="M18.562,33.753L18.562,33.753v-0.006c-0.002-1.127-0.451-2.209-1.248-3.004
		c-0.799-0.795-1.879-1.242-3.008-1.242c-1.127,0.002-2.207,0.449-3.004,1.248c-0.797,0.797-1.244,1.877-1.244,3.004
		s0.447,2.209,1.244,3.006s1.877,1.246,3.004,1.246c1.129,0,2.209-0.445,3.008-1.242c0.797-0.795,1.246-1.875,1.248-3.002V33.753z"
		/>
	<path fill="#FF0000" stroke="#000000" d="M387.341,105.784L387.341,105.784v-0.008c-0.004-1.127-0.453-2.207-1.25-3.004
		c-0.799-0.795-1.879-1.242-3.008-1.24c-1.125,0-2.207,0.449-3.004,1.246s-1.244,1.879-1.244,3.006s0.447,2.207,1.244,3.004
		c0.797,0.799,1.879,1.248,3.004,1.248c1.129,0,2.209-0.445,3.008-1.242c0.797-0.795,1.246-1.875,1.25-3.002V105.784z"/>
	<path fill="#FF0000" stroke="#000000" d="M93.15,391.231L93.15,391.231v-0.004c-0.002-1.129-0.451-2.211-1.25-3.004
		c-0.797-0.797-1.879-1.242-3.006-1.242s-2.207,0.449-3.004,1.246c-0.797,0.799-1.244,1.879-1.244,3.004
		c0,1.129,0.447,2.211,1.244,3.008s1.877,1.244,3.004,1.246c1.127,0,2.209-0.447,3.006-1.242c0.799-0.797,1.248-1.877,1.25-3.002
		V391.231z"/>
	<path fill="#FF0000" stroke="#000000" d="M193.351,57.013L193.351,57.013v-0.008c-0.002-1.127-0.451-2.207-1.25-3.004
		c-0.799-0.795-1.879-1.242-3.006-1.24c-1.127,0-2.207,0.449-3.004,1.248c-0.797,0.797-1.244,1.877-1.244,3.004
		s0.447,2.209,1.244,3.006s1.877,1.244,3.004,1.246s2.207-0.445,3.006-1.24c0.799-0.797,1.248-1.877,1.25-3.004V57.013z"/>
	<path fill="#FF0000" stroke="#000000" d="M262.892,120.349L262.892,120.349v-0.008c0-1.127-0.449-2.207-1.246-3.004
		c-0.801-0.797-1.883-1.242-3.008-1.242c-1.127,0.002-2.207,0.449-3.004,1.246c-0.797,0.799-1.242,1.881-1.242,3.008
		c0,1.125,0.445,2.207,1.242,3.004s1.877,1.246,3.004,1.248c1.125,0,2.207-0.447,3.008-1.242c0.797-0.795,1.246-1.877,1.246-3.004
		V120.349z"/>
	<path fill="#FF0000" stroke="#000000" d="M116.003,210.909L116.003,210.909v-0.01c-0.002-1.125-0.451-2.205-1.25-3.002
		c-0.799-0.795-1.879-1.242-3.006-1.24c-1.129,0-2.207,0.449-3.004,1.246s-1.244,1.877-1.244,3.006c0,1.127,0.447,2.207,1.244,3.004
		s1.875,1.246,3.004,1.246c1.127,0.002,2.207-0.445,3.006-1.24c0.799-0.797,1.248-1.877,1.25-3.004V210.909z"/>
	<path fill="#FF0000" stroke="#000000" d="M318.72,82.823L318.72,82.823v-0.008c0-1.127-0.449-2.207-1.246-3.002
		c-0.797-0.797-1.883-1.242-3.008-1.242c-1.127,0-2.207,0.449-3.004,1.246s-1.242,1.879-1.242,3.006s0.445,2.209,1.242,3.006
		s1.877,1.244,3.004,1.246c1.125,0.002,2.211-0.445,3.008-1.24c0.797-0.797,1.246-1.877,1.246-3.006V82.823z"/>
	<path fill="#FF0000" stroke="#000000" d="M360.278,334.762L360.278,334.762v-0.006c0-1.127-0.451-2.209-1.248-3.002
		c-0.797-0.797-1.877-1.242-3.006-1.242s-2.209,0.447-3.006,1.244c-0.797,0.799-1.242,1.881-1.242,3.006
		c0,1.129,0.445,2.209,1.242,3.006s1.877,1.244,3.006,1.248c1.129,0,2.209-0.449,3.006-1.242c0.797-0.797,1.248-1.879,1.248-3.004
		V334.762z"/>
	<path fill="#FF0000" stroke="#000000" d="M388.372,341.536L388.372,341.536v-0.008c-0.004-1.125-0.453-2.207-1.252-3.004
		c-0.797-0.793-1.877-1.242-3.006-1.238c-1.129,0-2.207,0.447-3.004,1.244s-1.244,1.877-1.244,3.006s0.447,2.209,1.244,3.006
		s1.875,1.244,3.004,1.244c1.129,0.004,2.209-0.445,3.006-1.242c0.799-0.793,1.248-1.875,1.252-3.002V341.536z"/>
	<path fill="#FF0000" stroke="#000000" d="M358.058,197.521L358.058,197.521v-0.008c-0.002-1.129-0.451-2.207-1.248-3.004
		c-0.801-0.797-1.881-1.242-3.008-1.242c-1.125,0.002-2.207,0.451-3.004,1.248s-1.246,1.877-1.246,3.006
		c0,1.125,0.449,2.207,1.246,3.004c0.797,0.799,1.879,1.246,3.004,1.246c1.127,0.002,2.207-0.445,3.008-1.24
		c0.797-0.795,1.246-1.877,1.248-3.002V197.521z"/>
	<path fill="#FF0000" stroke="#000000" d="M96.107,183.267L96.107,183.267v-0.008c-0.002-1.129-0.451-2.207-1.25-3.004
		c-0.797-0.797-1.879-1.242-3.006-1.242c-1.127,0.002-2.209,0.449-3.004,1.246c-0.797,0.799-1.244,1.881-1.244,3.008
		c0,1.125,0.447,2.207,1.244,3.004c0.795,0.797,1.877,1.246,3.004,1.248c1.127,0,2.209-0.447,3.006-1.242
		c0.799-0.795,1.248-1.877,1.25-3.004V183.267z"/>
	<path fill="#FF0000" stroke="#000000" d="M237.446,25.919L237.446,25.919v-0.008c0-1.125-0.453-2.207-1.25-3.002
		s-1.877-1.242-3.004-1.24c-1.128,0-2.207,0.447-3.003,1.246c-0.797,0.797-1.248,1.879-1.248,3.004c0,1.129,0.451,2.209,1.248,3.006
		s1.875,1.246,3.003,1.248c1.127,0,2.207-0.445,3.004-1.242s1.25-1.875,1.25-3.004V25.919z"/>
	<path fill="#FF0000" stroke="#000000" d="M34.755,363.749L34.755,363.749v-0.01c-0.002-1.125-0.451-2.205-1.25-3.002
		c-0.797-0.795-1.879-1.242-3.006-1.24c-1.127,0-2.207,0.449-3.004,1.246s-1.244,1.879-1.244,3.006s0.447,2.209,1.244,3.006
		S29.373,368,30.5,368c1.127,0.002,2.209-0.445,3.006-1.24c0.799-0.797,1.248-1.877,1.25-3.002V363.749z"/>
	<path fill="#FF0000" stroke="#000000" d="M435.185,79.688L435.185,79.688v-0.006c0-1.129-0.451-2.209-1.248-3.004
		c-0.797-0.797-1.881-1.244-3.006-1.242c-1.129,0.002-2.209,0.451-3.006,1.248s-1.242,1.877-1.242,3.004s0.445,2.209,1.242,3.006
		c0.797,0.799,1.877,1.246,3.006,1.246c1.125,0.002,2.209-0.445,3.006-1.24c0.797-0.797,1.248-1.877,1.248-3.004V79.688z"/>
	<path fill="#FF0000" stroke="#000000" d="M80.99,336.122L80.99,336.122v-0.008c-0.002-1.125-0.453-2.207-1.25-3.004
		c-0.799-0.793-1.879-1.242-3.006-1.238c-1.129,0-2.209,0.447-3.006,1.244s-1.242,1.877-1.242,3.006s0.445,2.209,1.242,3.006
		s1.877,1.244,3.006,1.244c1.127,0.004,2.207-0.445,3.006-1.238c0.797-0.797,1.248-1.879,1.25-3.006V336.122z"/>
	<path fill="#FF0000" stroke="#000000" d="M246.333,366.793L246.333,366.793v-0.01c-0.002-1.125-0.449-2.205-1.25-3.002
		c-0.797-0.795-1.879-1.242-3.006-1.242c-1.127,0.002-2.209,0.449-3.002,1.246c-0.797,0.797-1.246,1.879-1.246,3.008
		c0,1.125,0.449,2.205,1.246,3.004c0.793,0.797,1.875,1.246,3.002,1.246s2.209-0.445,3.006-1.242
		c0.801-0.793,1.248-1.875,1.25-3.004V366.793z"/>
	<path fill="#FF0000" stroke="#000000" d="M154.755,412.569L154.755,412.569v-0.006c-0.002-1.129-0.451-2.209-1.25-3.004
		c-0.797-0.797-1.879-1.244-3.006-1.242c-1.127,0-2.207,0.449-3.004,1.246s-1.244,1.879-1.244,3.006s0.447,2.209,1.244,3.006
		s1.877,1.246,3.004,1.246c1.127,0.002,2.209-0.445,3.006-1.24c0.799-0.797,1.248-1.877,1.25-3.002V412.569z"/>
	<path fill="#FF0000" stroke="#000000" d="M319.696,400.135L319.696,400.135v-0.01c-0.004-1.125-0.451-2.205-1.25-3.002
		c-0.797-0.795-1.879-1.242-3.008-1.24c-1.125,0-2.205,0.449-3.002,1.246s-1.244,1.879-1.244,3.006s0.447,2.209,1.244,3.006
		s1.877,1.246,3.002,1.246c1.129,0.002,2.211-0.445,3.008-1.242c0.799-0.795,1.246-1.875,1.25-3.004V400.135z"/>
	<path fill="#FF0000" stroke="#000000" d="M439.995,42.116L439.995,42.116v-0.008c-0.002-1.127-0.451-2.207-1.248-3.002
		c-0.801-0.797-1.881-1.242-3.008-1.242c-1.125,0-2.207,0.449-3.004,1.248c-0.797,0.797-1.246,1.877-1.246,3.004
		s0.449,2.209,1.246,3.006s1.879,1.246,3.004,1.246c1.127,0.002,2.207-0.445,3.008-1.242c0.797-0.795,1.246-1.875,1.248-3.002
		V42.116z"/>
	<path fill="#FF0000" stroke="#000000" d="M352.501,105.116L352.501,105.116v-0.01c-0.004-1.125-0.453-2.205-1.25-3.002
		c-0.799-0.795-1.879-1.242-3.004-1.24c-1.129,0-2.211,0.449-3.008,1.246s-1.244,1.879-1.244,3.006s0.447,2.207,1.244,3.004
		s1.879,1.248,3.008,1.248c1.125,0,2.205-0.445,3.004-1.242c0.797-0.797,1.246-1.875,1.25-3.002V105.116z"/>
	<path fill="#FF0000" stroke="#000000" d="M173.46,144.958L173.46,144.958v-0.01c-0.002-1.127-0.451-2.205-1.25-3.002
		c-0.797-0.797-1.879-1.242-3.006-1.242c-1.127,0.002-2.207,0.449-3.004,1.246s-1.244,1.879-1.244,3.008
		c0,1.125,0.447,2.207,1.244,3.004s1.877,1.246,3.004,1.246c1.127,0.002,2.209-0.445,3.006-1.24c0.799-0.797,1.248-1.877,1.25-3.004
		V144.958z"/>
	<path fill="#FF0000" stroke="#000000" d="M340.778,229.114L340.778,229.114v-0.004c-0.004-1.129-0.451-2.211-1.25-3.008
		c-0.797-0.793-1.879-1.242-3.008-1.238c-1.127,0-2.205,0.449-3.002,1.246s-1.244,1.877-1.244,3.004
		c0,1.129,0.447,2.211,1.244,3.008s1.875,1.244,3.002,1.244c1.129,0.002,2.211-0.445,3.008-1.24c0.799-0.797,1.246-1.877,1.25-3.002
		V229.114z"/>
	<path fill="#FF0000" stroke="#000000" d="M43.253,167.321L43.253,167.321v-0.006c-0.002-1.127-0.451-2.209-1.248-3.004
		c-0.799-0.795-1.879-1.242-3.008-1.24c-1.127,0-2.207,0.449-3.004,1.246s-1.244,1.879-1.244,3.004c0,1.129,0.447,2.211,1.244,3.008
		s1.877,1.244,3.004,1.246c1.129,0,2.209-0.445,3.008-1.242c0.797-0.797,1.246-1.875,1.248-3.004V167.321z"/>
	<path fill="#FF0000" stroke="#000000" d="M155.607,174.132L155.607,174.132v-0.006c-0.004-1.129-0.453-2.209-1.25-3.004
		c-0.799-0.797-1.879-1.244-3.008-1.242c-1.125,0.002-2.207,0.449-3.004,1.246c-0.795,0.799-1.244,1.879-1.244,3.006
		s0.449,2.209,1.244,3.006c0.797,0.797,1.879,1.246,3.004,1.246c1.129,0,2.209-0.445,3.008-1.242
		c0.797-0.795,1.246-1.875,1.25-3.002V174.132z"/>
	<path fill="#FF0000" stroke="#000000" d="M196.029,28.526L196.029,28.526v-0.006c-0.004-1.127-0.453-2.209-1.25-3.004
		s-1.879-1.242-3.008-1.242c-1.125,0.002-2.207,0.449-3.002,1.246c-0.797,0.799-1.244,1.879-1.244,3.006s0.447,2.209,1.244,3.006
		c0.795,0.797,1.877,1.246,3.002,1.246c1.129,0,2.211-0.445,3.008-1.242c0.797-0.795,1.246-1.875,1.25-3.002V28.526z"/>
	<path fill="#FF0000" stroke="#000000" d="M102.81,106.626L102.81,106.626v-0.008c0-1.129-0.451-2.207-1.25-3.004
		c-0.797-0.797-1.879-1.242-3.004-1.242c-1.129,0.002-2.209,0.449-3.006,1.246s-1.244,1.879-1.244,3.008
		c0,1.125,0.447,2.207,1.244,3.004s1.877,1.246,3.006,1.246c1.125,0.002,2.207-0.445,3.004-1.24c0.799-0.795,1.25-1.877,1.25-3.004
		V106.626z"/>
	<path fill="#FF0000" stroke="#000000" d="M314.118,196.892L314.118,196.892v-0.008c0-1.127-0.451-2.207-1.248-3.002
		c-0.797-0.797-1.881-1.244-3.006-1.242c-1.129,0.002-2.209,0.449-3.006,1.246s-1.242,1.877-1.242,3.006
		c0,1.127,0.445,2.207,1.242,3.004c0.797,0.799,1.877,1.246,3.006,1.246c1.125,0.002,2.209-0.445,3.006-1.24
		s1.248-1.877,1.248-3.002V196.892z"/>
	<path fill="#FF0000" stroke="#000000" d="M51.13,363.403L51.13,363.403v-0.008c-0.004-1.125-0.453-2.207-1.25-3.004
		c-0.799-0.793-1.879-1.242-3.008-1.238c-1.127,0-2.207,0.447-3.004,1.244s-1.244,1.877-1.244,3.006s0.447,2.209,1.244,3.006
		s1.877,1.244,3.004,1.244c1.129,0.004,2.209-0.445,3.008-1.238c0.797-0.797,1.246-1.879,1.25-3.006V363.403z"/>
	<path fill="#FF0000" stroke="#000000" d="M428.38,335.471L428.38,335.471v-0.01c-0.004-1.125-0.453-2.205-1.252-3.002
		c-0.797-0.795-1.877-1.242-3.006-1.24c-1.129,0-2.207,0.449-3.004,1.246s-1.244,1.879-1.244,3.006s0.447,2.209,1.244,3.006
		s1.875,1.246,3.004,1.246c1.129,0.002,2.209-0.445,3.006-1.24c0.799-0.797,1.248-1.877,1.252-3.006V335.471z"/>
	<path fill="#FF0000" stroke="#000000" d="M86.63,310.958L86.63,310.958v-0.008c0-1.129-0.449-2.207-1.248-3.004
		s-1.881-1.242-3.006-1.242c-1.129,0.004-2.207,0.453-3.004,1.25s-1.244,1.877-1.244,3.004c0,1.125,0.447,2.207,1.244,3.004
		s1.875,1.248,3.004,1.248c1.125,0,2.207-0.445,3.006-1.242s1.248-1.875,1.248-3.002V310.958z"/>
	<path fill="#FF0000" stroke="#000000" d="M245.476,212.603L245.476,212.603v-0.008c-0.002-1.127-0.451-2.207-1.252-3.004
		c-0.797-0.797-1.877-1.242-3.004-1.242c-1.129,0.002-2.207,0.451-3.004,1.248c-0.797,0.799-1.246,1.879-1.246,3.006
		c0,1.125,0.449,2.207,1.246,3.006c0.797,0.797,1.875,1.244,3.004,1.246c1.127,0,2.207-0.445,3.004-1.242
		c0.801-0.795,1.25-1.877,1.252-3.002V212.603z"/>
	<path fill="#FF0000" stroke="#000000" d="M18.509,432.186L18.509,432.186v-0.01c-0.002-1.125-0.449-2.205-1.248-3.002
		s-1.881-1.242-3.006-1.242c-1.129,0.002-2.207,0.451-3.004,1.248s-1.246,1.879-1.246,3.006c0,1.125,0.449,2.205,1.246,3.006
		c0.797,0.797,1.875,1.246,3.004,1.246c1.125,0,2.207-0.445,3.006-1.242c0.799-0.795,1.246-1.875,1.248-3.004V432.186z"/>
	<path fill="#FF0000" stroke="#000000" d="M228.021,354.938L228.021,354.938v-0.004c-0.006-1.129-0.451-2.211-1.25-3.004
		c-0.801-0.797-1.881-1.242-3.008-1.242s-2.207,0.449-3.004,1.248c-0.797,0.797-1.244,1.877-1.244,3.002
		c0,1.129,0.447,2.211,1.244,3.008s1.877,1.244,3.004,1.246c1.127,0,2.207-0.445,3.008-1.242c0.799-0.797,1.244-1.875,1.25-3.002
		V354.938z"/>
	<path fill="#FF0000" stroke="#000000" d="M275.399,94.036L275.399,94.036v-0.008c0-1.125-0.451-2.207-1.248-3.002
		c-0.799-0.797-1.881-1.242-3.006-1.242c-1.129,0.002-2.209,0.449-3.006,1.246c-0.797,0.799-1.242,1.879-1.242,3.006
		s0.445,2.207,1.242,3.006c0.797,0.797,1.877,1.244,3.006,1.246c1.125,0,2.207-0.447,3.006-1.242
		c0.797-0.795,1.248-1.877,1.248-3.002V94.036z"/>
	<path fill="#FF0000" stroke="#000000" d="M57.859,218.743L57.859,218.743v-0.006c-0.002-1.127-0.453-2.209-1.25-3.004
		c-0.799-0.795-1.879-1.242-3.006-1.24c-1.127,0-2.209,0.449-3.004,1.246c-0.797,0.797-1.246,1.879-1.246,3.004
		c0,1.129,0.449,2.211,1.246,3.008c0.795,0.797,1.877,1.244,3.004,1.244c1.127,0.002,2.207-0.445,3.006-1.24
		c0.797-0.797,1.248-1.875,1.25-3.004V218.743z"/>
	<path fill="#FF0000" stroke="#000000" d="M189.781,97.442L189.781,97.442v-0.008c-0.002-1.129-0.451-2.207-1.248-3.004
		s-1.879-1.242-3.008-1.242c-1.125,0.002-2.207,0.451-3.004,1.248c-0.795,0.799-1.242,1.879-1.242,3.006
		c0,1.125,0.447,2.207,1.242,3.006c0.797,0.797,1.879,1.244,3.004,1.246c1.129,0,2.211-0.447,3.008-1.242s1.246-1.877,1.248-3.002
		V97.442z"/>
	<path fill="#FF0000" stroke="#000000" d="M423.067,256.352L423.067,256.352v-0.006c-0.004-1.127-0.451-2.209-1.248-3.006
		c-0.799-0.793-1.881-1.242-3.006-1.238c-1.129,0-2.209,0.447-3.006,1.244s-1.244,1.877-1.244,3.006s0.447,2.209,1.244,3.006
		s1.877,1.244,3.006,1.244c1.125,0.004,2.207-0.445,3.006-1.238c0.797-0.797,1.244-1.879,1.248-3.004V256.352z"/>
	<path fill="#FF0000" stroke="#000000" d="M120.529,60.017L120.529,60.017v-0.008c0-1.127-0.451-2.207-1.248-3.004
		c-0.799-0.795-1.879-1.242-3.006-1.24s-2.209,0.449-3.006,1.246c-0.795,0.797-1.244,1.877-1.244,3.006
		c0,1.127,0.449,2.207,1.244,3.004c0.797,0.797,1.879,1.246,3.006,1.246c1.127,0.002,2.207-0.445,3.006-1.24
		c0.797-0.797,1.248-1.877,1.248-3.002V60.017z"/>
	<path fill="#FF0000" stroke="#000000" d="M28.691,293.026L28.691,293.026v-0.006c-0.002-1.129-0.451-2.209-1.25-3.004
		c-0.799-0.797-1.879-1.242-3.006-1.242s-2.207,0.449-3.004,1.246c-0.797,0.801-1.244,1.881-1.244,3.006
		c0,1.127,0.447,2.209,1.244,3.006s1.877,1.246,3.004,1.248c1.127,0,2.207-0.447,3.006-1.242c0.799-0.797,1.248-1.877,1.25-3.002
		V293.026z"/>
	<path fill="#FF0000" stroke="#000000" d="M184.951,357.864L184.951,357.864v-0.01c-0.002-1.127-0.451-2.205-1.25-3.002
		c-0.797-0.797-1.879-1.242-3.006-1.242c-1.127,0.002-2.207,0.449-3.004,1.246s-1.244,1.879-1.244,3.008
		c0,1.125,0.447,2.205,1.244,3.002s1.877,1.248,3.004,1.248s2.209-0.445,3.006-1.242c0.799-0.797,1.248-1.875,1.25-3.004V357.864z"
		/>
	<path fill="#FF0000" stroke="#000000" d="M306.2,213.175L306.2,213.175v-0.008c-0.004-1.127-0.453-2.207-1.252-3.002
		c-0.797-0.797-1.877-1.242-3.006-1.242c-1.125,0-2.207,0.449-3.004,1.246c-0.797,0.799-1.244,1.879-1.244,3.006
		s0.447,2.207,1.244,3.006c0.797,0.797,1.879,1.246,3.004,1.246c1.129,0,2.209-0.445,3.006-1.242
		c0.799-0.795,1.248-1.875,1.252-3.002V213.175z"/>
	<path fill="#FF0000" stroke="#000000" d="M122.943,257.825L122.943,257.825v-0.004c-0.002-1.129-0.453-2.211-1.25-3.004
		c-0.799-0.797-1.879-1.242-3.006-1.242c-1.129,0-2.209,0.449-3.006,1.248c-0.797,0.797-1.242,1.877-1.242,3.002
		c0,1.129,0.445,2.211,1.242,3.008s1.877,1.244,3.006,1.246c1.127,0,2.207-0.445,3.006-1.242c0.797-0.797,1.248-1.875,1.25-3.002
		V257.825z"/>
	<path fill="#FF0000" stroke="#000000" d="M311.278,295.368L311.278,295.368v-0.01c-0.002-1.127-0.449-2.205-1.246-3.002
		c-0.801-0.797-1.883-1.242-3.01-1.242c-1.125,0.002-2.205,0.449-3.002,1.246s-1.246,1.879-1.246,3.008
		c0,1.125,0.449,2.205,1.246,3.004c0.797,0.797,1.877,1.246,3.002,1.246c1.127,0,2.209-0.445,3.01-1.242
		c0.797-0.793,1.244-1.875,1.246-3.004V295.368z"/>
	<path fill="#FF0000" stroke="#000000" d="M45.882,237.735L45.882,237.735v-0.008c-0.002-1.127-0.453-2.207-1.25-3.002
		c-0.799-0.797-1.879-1.242-3.006-1.242s-2.209,0.447-3.006,1.248c-0.795,0.797-1.244,1.879-1.244,3.004
		c0,1.127,0.449,2.207,1.244,3.004c0.797,0.796,1.879,1.246,3.006,1.25c1.127,0,2.207-0.445,3.006-1.242
		c0.797-0.797,1.248-1.875,1.25-3.004V237.735z"/>
	<path fill="#FF0000" stroke="#000000" d="M100.035,169.36L100.035,169.36v-0.008c-0.002-1.127-0.453-2.207-1.25-3.004
		c-0.799-0.797-1.879-1.242-3.006-1.242c-1.127,0.002-2.209,0.451-3.004,1.248c-0.797,0.799-1.246,1.879-1.246,3.006
		c0,1.125,0.449,2.207,1.246,3.006c0.795,0.797,1.877,1.244,3.004,1.246c1.127,0,2.207-0.445,3.006-1.242
		c0.797-0.795,1.248-1.875,1.25-3.002V169.36z"/>
	<path fill="#FF0000" stroke="#000000" d="M102.937,376.125L102.937,376.125v-0.004c-0.004-1.129-0.451-2.211-1.25-3.004
		c-0.799-0.797-1.879-1.242-3.008-1.242c-1.127,0-2.207,0.449-3.002,1.246c-0.797,0.799-1.246,1.877-1.246,3.004
		c0,1.129,0.449,2.211,1.246,3.008c0.795,0.797,1.875,1.244,3.002,1.246c1.129,0,2.209-0.447,3.008-1.242
		c0.799-0.797,1.246-1.877,1.25-3.002V376.125z"/>
	<path fill="#FF0000" stroke="#000000" d="M397.2,293.102L397.2,293.102v-0.008c0-1.125-0.449-2.207-1.246-3.004
		c-0.797-0.793-1.883-1.242-3.008-1.238c-1.127,0-2.207,0.447-3.004,1.244s-1.242,1.877-1.242,3.006s0.445,2.209,1.242,3.006
		s1.877,1.244,3.004,1.244c1.125,0.004,2.211-0.445,3.008-1.238c0.797-0.797,1.246-1.879,1.246-3.004V293.102z"/>
	<path fill="#FF0000" stroke="#000000" d="M141.38,204.675L141.38,204.675v-0.008c-0.002-1.127-0.451-2.207-1.248-3.002
		c-0.799-0.797-1.881-1.244-3.008-1.242c-1.127,0-2.207,0.449-3.004,1.246c-0.795,0.797-1.244,1.877-1.244,3.006
		c0,1.127,0.449,2.207,1.244,3.004c0.797,0.799,1.877,1.246,3.004,1.246c1.127,0.002,2.209-0.445,3.008-1.24
		c0.797-0.795,1.246-1.877,1.248-3.004V204.675z"/>
	<path fill="#FF0000" stroke="#000000" d="M311.919,148.233L311.919,148.233v-0.006c-0.004-1.127-0.455-2.209-1.252-3.004
		s-1.877-1.242-3.006-1.24c-1.129,0-2.209,0.447-3.004,1.246c-0.797,0.797-1.244,1.877-1.244,3.004c0,1.129,0.447,2.209,1.244,3.006
		c0.795,0.797,1.875,1.246,3.004,1.246c1.129,0.002,2.209-0.445,3.006-1.242c0.797-0.795,1.248-1.875,1.252-3.002V148.233z"/>
	<path fill="#FF0000" stroke="#000000" d="M356.567,323.014L356.567,323.014v-0.006c0-1.129-0.453-2.207-1.25-3.004
		s-1.879-1.242-3.004-1.242c-1.129,0-2.211,0.453-3.008,1.25s-1.242,1.877-1.242,3.002c0,1.127,0.445,2.209,1.242,3.006
		s1.879,1.246,3.008,1.248c1.125,0,2.207-0.445,3.004-1.242s1.25-1.875,1.25-3.002V323.014z"/>
	<path fill="#FF0000" stroke="#000000" d="M198.599,278.786L198.599,278.786v-0.008c0-1.127-0.451-2.207-1.25-3.004
		c-0.797-0.795-1.879-1.242-3.004-1.24c-1.129,0-2.209,0.447-3.006,1.244s-1.244,1.879-1.244,3.008c0,1.127,0.447,2.207,1.244,3.004
		s1.877,1.246,3.006,1.246c1.125,0.004,2.207-0.445,3.004-1.238c0.799-0.797,1.25-1.879,1.25-3.004V278.786z"/>
	<path fill="#FF0000" stroke="#000000" d="M236.786,189.458L236.786,189.458v-0.008c-0.004-1.129-0.451-2.207-1.248-3.004
		s-1.881-1.242-3.005-1.242c-1.129,0.002-2.209,0.451-3.006,1.248c-0.797,0.799-1.242,1.879-1.242,3.006
		c0,1.125,0.445,2.207,1.242,3.006c0.797,0.797,1.877,1.244,3.006,1.246c1.125,0,2.208-0.447,3.005-1.242s1.244-1.877,1.248-3.002
		V189.458z"/>
	<path fill="#FF0000" stroke="#000000" d="M284.663,404.647L284.663,404.647v-0.01c0-1.127-0.451-2.205-1.248-3.002
		s-1.881-1.242-3.006-1.242c-1.127,0.002-2.209,0.451-3.006,1.248s-1.242,1.879-1.242,3.006c0,1.125,0.445,2.205,1.242,3.002
		c0.797,0.801,1.879,1.25,3.006,1.25c1.125,0,2.209-0.445,3.006-1.242c0.797-0.795,1.248-1.875,1.248-3.004V404.647z"/>
	<path fill="#FF0000" stroke="#000000" d="M174.933,132.261L174.933,132.261v-0.006c-0.002-1.129-0.451-2.209-1.248-3.004
		c-0.799-0.797-1.881-1.244-3.008-1.242s-2.207,0.449-3.004,1.246s-1.242,1.879-1.242,3.006s0.445,2.209,1.242,3.006
		s1.877,1.246,3.004,1.246s2.209-0.445,3.008-1.242c0.797-0.795,1.246-1.875,1.248-3.002V132.261z"/>
	<path fill="#FF0000" stroke="#000000" d="M32.115,116.241L32.115,116.241v-0.006c-0.002-1.127-0.451-2.209-1.25-3.004
		s-1.879-1.242-3.006-1.242c-1.127,0.002-2.207,0.449-3.004,1.248c-0.797,0.797-1.244,1.877-1.244,3.004
		c0,1.129,0.447,2.209,1.244,3.006s1.877,1.246,3.004,1.246s2.207-0.445,3.006-1.242c0.799-0.795,1.248-1.875,1.25-3.002V116.241z"
		/>
	<path fill="#FF0000" stroke="#000000" d="M308.735,262.698L308.735,262.698v-0.006c-0.002-1.129-0.449-2.207-1.25-3.004
		c-0.797-0.797-1.879-1.242-3.006-1.242c-1.125,0-2.205,0.453-3.002,1.25s-1.246,1.877-1.246,3.002c0,1.127,0.449,2.209,1.246,3.006
		s1.877,1.246,3.002,1.248c1.127,0,2.209-0.445,3.006-1.242c0.801-0.797,1.248-1.875,1.25-3.002V262.698z"/>
	<path fill="#FF0000" stroke="#000000" d="M208.08,321.141L208.08,321.141v-0.004c-0.002-1.129-0.453-2.211-1.25-3.004
		c-0.797-0.797-1.879-1.242-3.006-1.242s-2.209,0.449-3.004,1.246c-0.797,0.799-1.244,1.879-1.244,3.004
		c0,1.129,0.447,2.211,1.244,3.008c0.795,0.797,1.877,1.244,3.004,1.246c1.127,0,2.209-0.447,3.006-1.242
		c0.797-0.797,1.248-1.877,1.25-3.002V321.141z"/>
	<path fill="#FF0000" stroke="#000000" d="M330.556,229.274L330.556,229.274v-0.01c-0.002-1.125-0.449-2.205-1.246-3.002
		c-0.801-0.795-1.883-1.242-3.01-1.24c-1.125,0-2.205,0.447-3.002,1.244s-1.246,1.879-1.246,3.008c0,1.127,0.449,2.207,1.246,3.004
		s1.877,1.246,3.002,1.246c1.127,0.004,2.209-0.445,3.01-1.242c0.797-0.793,1.244-1.875,1.246-3.004V229.274z"/>
	<path fill="#FF0000" stroke="#000000" d="M129.826,421.059L129.826,421.059v-0.008c-0.002-1.125-0.451-2.207-1.25-3.004
		c-0.797-0.793-1.879-1.242-3.006-1.238c-1.127,0-2.207,0.447-3.004,1.244s-1.244,1.877-1.244,3.006s0.447,2.209,1.244,3.006
		s1.877,1.244,3.004,1.244c1.127,0.004,2.209-0.445,3.006-1.238c0.799-0.797,1.248-1.879,1.25-3.006V421.059z"/>
	<path fill="#FF0000" stroke="#000000" d="M163.818,41.938L163.818,41.938v-0.008c-0.004-1.129-0.453-2.207-1.25-3.004
		c-0.799-0.797-1.879-1.242-3.006-1.242c-1.129,0.002-2.209,0.449-3.006,1.246s-1.244,1.879-1.244,3.008
		c0,1.125,0.447,2.207,1.244,3.004s1.877,1.246,3.006,1.246c1.127,0.002,2.207-0.445,3.006-1.24c0.797-0.795,1.246-1.877,1.25-3.004
		V41.938z"/>
	<path fill="#FF0000" stroke="#000000" d="M304.587,167.536L304.587,167.536v-0.008c-0.002-1.127-0.449-2.207-1.25-3.002
		c-0.797-0.797-1.879-1.244-3.006-1.242c-1.125,0.002-2.205,0.449-3.002,1.246s-1.246,1.877-1.246,3.006
		c0,1.127,0.449,2.207,1.246,3.004c0.797,0.799,1.877,1.246,3.002,1.246c1.127,0.002,2.209-0.445,3.006-1.24
		c0.801-0.795,1.248-1.877,1.25-3.002V167.536z"/>
	<path fill="#FF0000" stroke="#000000" d="M414.177,420.526L414.177,420.526v-0.006c-0.004-1.129-0.453-2.209-1.25-3.004
		c-0.799-0.797-1.879-1.242-3.008-1.242c-1.125,0-2.207,0.449-3.004,1.246c-0.797,0.801-1.244,1.879-1.244,3.006
		s0.447,2.209,1.244,3.006s1.879,1.246,3.004,1.248c1.129,0,2.209-0.447,3.008-1.242c0.797-0.797,1.246-1.877,1.25-3.002V420.526z"
		/>
	<path fill="#FF0000" stroke="#000000" d="M273.255,353.624L273.255,353.624v-0.01c-0.004-1.125-0.451-2.205-1.248-3.002
		c-0.799-0.795-1.881-1.242-3.006-1.24c-1.129,0-2.209,0.449-3.006,1.246s-1.244,1.879-1.244,3.006s0.447,2.209,1.244,3.006
		s1.877,1.246,3.006,1.246c1.125,0.002,2.207-0.445,3.006-1.24c0.797-0.797,1.244-1.877,1.248-3.002V353.624z"/>
	<path fill="#FF0000" stroke="#000000" d="M185.873,356.225L185.873,356.225v-0.01c-0.002-1.127-0.451-2.205-1.25-3.002
		c-0.797-0.797-1.879-1.242-3.004-1.242c-1.129,0.002-2.209,0.451-3.006,1.248s-1.244,1.879-1.244,3.006
		c0,1.125,0.447,2.205,1.244,3.002s1.877,1.25,3.006,1.25c1.125,0,2.207-0.445,3.004-1.242c0.799-0.797,1.248-1.875,1.25-3.004
		V356.225z"/>
	<path fill="#FF0000" stroke="#000000" d="M165.542,50.276L165.542,50.276v-0.006c-0.002-1.129-0.451-2.209-1.25-3.004
		c-0.799-0.797-1.879-1.242-3.006-1.242c-1.127,0.002-2.207,0.449-3.004,1.246c-0.797,0.799-1.246,1.879-1.246,3.006
		s0.449,2.209,1.246,3.006s1.877,1.246,3.004,1.246s2.207-0.445,3.006-1.242c0.799-0.795,1.248-1.875,1.25-3.002V50.276z"/>
	<path fill="#FF0000" stroke="#000000" d="M325.526,73.7L325.526,73.7v-0.008c0-1.129-0.451-2.207-1.248-3.004
		s-1.881-1.242-3.006-1.242c-1.127,0.002-2.209,0.451-3.006,1.248c-0.797,0.799-1.242,1.877-1.242,3.006
		c0,1.125,0.445,2.207,1.242,3.004c0.797,0.799,1.879,1.246,3.006,1.248c1.125,0,2.209-0.447,3.006-1.242s1.248-1.877,1.248-3.002
		V73.7z"/>
	<path fill="#FF0000" stroke="#000000" d="M49.189,305.622L49.189,305.622v-0.008c-0.002-1.127-0.451-2.205-1.25-3.002
		c-0.797-0.797-1.879-1.242-3.006-1.242s-2.207,0.447-3.004,1.248c-0.797,0.797-1.244,1.879-1.244,3.004
		c0,1.127,0.447,2.207,1.244,3.004s1.877,1.246,3.004,1.25c1.127,0,2.209-0.445,3.006-1.242c0.799-0.797,1.248-1.875,1.25-3.004
		V305.622z"/>
	<path fill="#FF0000" stroke="#000000" d="M350.517,416.34L350.517,416.34v-0.008c-0.004-1.127-0.451-2.207-1.25-3.002
		c-0.797-0.797-1.879-1.244-3.008-1.242c-1.127,0-2.207,0.447-3.002,1.244c-0.797,0.797-1.244,1.879-1.244,3.008
		c0,1.127,0.447,2.207,1.244,3.004c0.795,0.797,1.875,1.246,3.002,1.246c1.129,0.004,2.211-0.445,3.008-1.238
		c0.799-0.797,1.246-1.879,1.25-3.004V416.34z"/>
	<path fill="#FF0000" stroke="#000000" d="M97.763,398.735L97.763,398.735v-0.008c-0.002-1.125-0.451-2.207-1.25-3.004
		c-0.799-0.793-1.879-1.242-3.006-1.242c-1.127,0.004-2.207,0.451-3.004,1.248s-1.244,1.877-1.244,3.006s0.447,2.207,1.244,3.006
		c0.797,0.797,1.877,1.244,3.004,1.244s2.207-0.445,3.006-1.242c0.799-0.793,1.248-1.875,1.25-3.002V398.735z"/>
	<path fill="#FF0000" stroke="#000000" d="M364.714,334.79L364.714,334.79v-0.008c0-1.127-0.451-2.207-1.248-3.002
		c-0.797-0.797-1.879-1.242-3.006-1.242s-2.209,0.447-3.006,1.244c-0.797,0.801-1.242,1.883-1.242,3.008
		c0,1.127,0.445,2.207,1.242,3.004s1.879,1.246,3.006,1.25c1.127,0,2.209-0.449,3.006-1.242c0.797-0.797,1.248-1.879,1.248-3.004
		V334.79z"/>
	<path fill="#FF0000" stroke="#000000" d="M197.501,427.649L197.501,427.649v-0.01c-0.002-1.125-0.451-2.205-1.25-3.002
		c-0.799-0.795-1.879-1.242-3.006-1.24c-1.127,0-2.207,0.447-3.004,1.244s-1.244,1.879-1.244,3.008c0,1.127,0.447,2.207,1.244,3.004
		s1.877,1.246,3.004,1.246c1.127,0.004,2.207-0.445,3.006-1.238c0.799-0.797,1.248-1.879,1.25-3.004V427.649z"/>
	<path fill="#FF0000" stroke="#000000" d="M65.423,214.989L65.423,214.989v-0.008c-0.002-1.125-0.451-2.205-1.248-3.002
		c-0.799-0.795-1.879-1.242-3.008-1.24c-1.127,0-2.207,0.449-3.004,1.246c-0.795,0.797-1.244,1.879-1.244,3.004
		c0,1.129,0.449,2.209,1.244,3.006c0.797,0.797,1.877,1.246,3.004,1.248c1.129,0,2.209-0.445,3.008-1.242
		c0.797-0.797,1.246-1.875,1.248-3.002V214.989z"/>
	<path fill="#FF0000" stroke="#000000" d="M353.556,288.536L353.556,288.536v-0.008c0-1.127-0.453-2.205-1.25-3.002
		c-0.799-0.797-1.879-1.242-3.004-1.242c-1.129,0-2.211,0.451-3.008,1.248s-1.242,1.879-1.242,3.004
		c0,1.127,0.445,2.207,1.242,3.004s1.879,1.246,3.008,1.25c1.125,0,2.205-0.445,3.004-1.242c0.797-0.797,1.25-1.875,1.25-3.004
		V288.536z"/>
	<path fill="#FF0000" stroke="#000000" d="M152.878,416.188L152.878,416.188v-0.01c-0.002-1.125-0.451-2.205-1.248-3.002
		c-0.797-0.795-1.881-1.242-3.008-1.242c-1.125,0.002-2.207,0.449-3.004,1.246s-1.242,1.879-1.242,3.008
		c0,1.125,0.445,2.205,1.242,3.004c0.797,0.797,1.879,1.246,3.004,1.246c1.127,0,2.211-0.445,3.008-1.242
		c0.797-0.793,1.246-1.875,1.248-3.004V416.188z"/>
	<path fill="#FF0000" stroke="#000000" d="M59.451,370.391L59.451,370.391v-0.008c-0.002-1.127-0.453-2.205-1.25-3.002
		c-0.799-0.797-1.879-1.242-3.006-1.242c-1.129,0-2.209,0.451-3.006,1.248s-1.242,1.879-1.242,3.004
		c0,1.127,0.445,2.207,1.242,3.004s1.877,1.246,3.006,1.25c1.127,0,2.207-0.445,3.006-1.242c0.797-0.797,1.248-1.875,1.25-3.004
		V370.391z"/>
	<path fill="#FF0000" stroke="#000000" d="M104.794,191.241L104.794,191.241v-0.006c-0.004-1.127-0.451-2.209-1.25-3.004
		s-1.879-1.242-3.008-1.24c-1.125,0-2.207,0.447-3.002,1.246c-0.797,0.797-1.246,1.877-1.246,3.004c0,1.129,0.449,2.209,1.246,3.006
		c0.795,0.797,1.877,1.246,3.002,1.246c1.129,0.002,2.209-0.445,3.008-1.242c0.799-0.795,1.246-1.875,1.25-3.002V191.241z"/>
	<path fill="#FF0000" stroke="#000000" d="M169.693,17.813L169.693,17.813v-0.008c0-1.127-0.449-2.207-1.248-3.004
		c-0.799-0.795-1.881-1.242-3.006-1.24c-1.129,0-2.207,0.451-3.004,1.248s-1.246,1.877-1.246,3.004s0.449,2.209,1.246,3.006
		s1.875,1.244,3.004,1.246c1.125,0.002,2.207-0.445,3.006-1.24c0.799-0.797,1.248-1.877,1.248-3.004V17.813z"/>
	<path fill="#FF0000" stroke="#000000" d="M137.896,69.454L137.896,69.454v-0.008c-0.002-1.129-0.451-2.207-1.25-3.004
		c-0.797-0.797-1.879-1.242-3.006-1.242c-1.127,0.002-2.209,0.449-3.004,1.246c-0.797,0.797-1.244,1.879-1.244,3.008
		c0,1.125,0.447,2.207,1.244,3.004c0.795,0.797,1.877,1.246,3.004,1.246c1.127,0.002,2.209-0.445,3.006-1.24
		c0.799-0.795,1.248-1.877,1.25-3.004V69.454z"/>
	<path fill="#FF0000" stroke="#000000" d="M56.115,209.204L56.115,209.204v-0.008c-0.002-1.127-0.449-2.207-1.248-3.004
		c-0.799-0.795-1.881-1.242-3.006-1.24c-1.129,0-2.207,0.449-3.004,1.248c-0.797,0.797-1.246,1.877-1.246,3.004
		s0.449,2.209,1.246,3.006s1.875,1.244,3.004,1.246c1.125,0.002,2.207-0.445,3.006-1.24c0.799-0.797,1.246-1.877,1.248-3.004
		V209.204z"/>
	<path fill="#FF0000" stroke="#000000" d="M250.728,154.06L250.728,154.06v-0.008c-0.002-1.125-0.449-2.207-1.25-3.002
		c-0.797-0.795-1.879-1.242-3.006-1.24c-1.127,0-2.205,0.447-3.002,1.246c-0.797,0.797-1.246,1.877-1.246,3.004
		c0,1.129,0.449,2.209,1.246,3.006s1.875,1.244,3.002,1.246s2.209-0.445,3.006-1.242c0.801-0.795,1.248-1.875,1.25-3.002V154.06z"/>
	<path fill="#FF0000" stroke="#000000" d="M191.482,210.741L191.482,210.741v-0.006c-0.002-1.129-0.451-2.209-1.25-3.004
		c-0.797-0.797-1.879-1.242-3.006-1.242c-1.127,0.002-2.207,0.449-3.004,1.246c-0.797,0.799-1.244,1.879-1.244,3.006
		s0.447,2.209,1.244,3.006s1.877,1.246,3.004,1.246s2.209-0.445,3.006-1.242c0.799-0.795,1.248-1.875,1.25-3.002V210.741z"/>
	<path fill="#FF0000" stroke="#000000" d="M347.815,369.079L347.815,369.079v-0.008c0-1.127-0.451-2.205-1.248-3.002
		c-0.801-0.797-1.881-1.242-3.006-1.242c-1.127,0-2.209,0.447-3.006,1.248c-0.797,0.797-1.242,1.879-1.242,3.004
		c0,1.127,0.445,2.207,1.242,3.004s1.879,1.246,3.006,1.25c1.125,0,2.205-0.445,3.006-1.242c0.797-0.797,1.248-1.875,1.248-3.004
		V369.079z"/>
	<path fill="#FF0000" stroke="#000000" d="M243.134,183.489L243.134,183.489v-0.008c0-1.127-0.449-2.207-1.246-3.002
		c-0.797-0.797-1.883-1.242-3.008-1.242c-1.127,0.002-2.207,0.449-3.004,1.246c-0.797,0.799-1.246,1.881-1.246,3.006
		c0,1.127,0.449,2.207,1.246,3.006c0.797,0.797,1.877,1.246,3.004,1.248c1.125,0,2.211-0.447,3.008-1.242
		c0.797-0.797,1.246-1.877,1.246-3.004V183.489z"/>
	<path fill="#FF0000" stroke="#000000" d="M349.468,363.93L349.468,363.93v-0.008c-0.002-1.125-0.451-2.207-1.248-3.004
		c-0.801-0.793-1.881-1.242-3.008-1.238c-1.125,0-2.207,0.447-3.004,1.244s-1.246,1.877-1.246,3.006s0.449,2.209,1.246,3.006
		s1.879,1.244,3.004,1.244c1.127,0.004,2.207-0.445,3.008-1.238c0.797-0.797,1.246-1.879,1.248-3.006V363.93z"/>
	<path fill="#FF0000" stroke="#000000" d="M193.375,423.092L193.375,423.092v-0.006c-0.002-1.129-0.451-2.209-1.25-3.004
		c-0.799-0.797-1.879-1.244-3.006-1.242c-1.127,0-2.209,0.449-3.004,1.246c-0.797,0.801-1.246,1.879-1.246,3.006
		s0.449,2.209,1.246,3.006c0.795,0.797,1.877,1.246,3.004,1.248c1.127,0,2.207-0.447,3.006-1.242
		c0.799-0.797,1.248-1.877,1.25-3.002V423.092z"/>
	<path fill="#FF0000" stroke="#000000" d="M298.81,64.456L298.81,64.456V64.45c-0.002-1.127-0.449-2.209-1.25-3.004
		c-0.797-0.795-1.879-1.242-3.006-1.242c-1.127,0.002-2.205,0.449-3.002,1.246c-0.797,0.799-1.246,1.879-1.246,3.006
		s0.449,2.209,1.246,3.006s1.875,1.246,3.002,1.246s2.209-0.445,3.006-1.242c0.801-0.795,1.248-1.875,1.25-3.002V64.456z"/>
</g>
<rect fill="none" width="450.001" height="450"/>
</svg>
